<svg xmlns="http://www.w3.org/2000/svg" xmlns:xlink="http://www.w3.org/1999/xlink" viewBox="0 0 425.2 283.46">
  <defs/>
  <defs>
    <path id="a" d="M0 0h425.2v283.47H0z"/>
  </defs>
  <clipPath id="b">
    <use overflow="visible" xlink:href="#a"/>
  </clipPath>
  <path fill="#fff" d="M0 0h425.2v283.47H0z" clip-path="url(#b)"/>
  <g clip-path="url(#b)">
    <g opacity=".23">
      <linearGradient id="c" x1="129.181" x2="129.181" y1="-1" y2="279.002" gradientTransform="rotate(180 212.6 141.73)" gradientUnits="userSpaceOnUse">
        <stop offset="0" stop-color="#009eff"/>
        <stop offset=".5" stop-color="#ff1e64"/>
        <stop offset="1" stop-color="#009eff"/>
      </linearGradient>
      <path fill="url(#c)" stroke="#fff" stroke-miterlimit="10" stroke-width=".75" d="M277.89 387.73l18.13 10.47 18.13-10.47V366.8l-18.13-10.47-18.13 10.47z" opacity=".8"/>
      <linearGradient id="d" x1="111.049" x2="111.049" y1="-1" y2="279.003" gradientTransform="rotate(180 212.6 141.73)" gradientUnits="userSpaceOnUse">
        <stop offset="0" stop-color="#009eff"/>
        <stop offset=".5" stop-color="#ff1e64"/>
        <stop offset="1" stop-color="#009eff"/>
      </linearGradient>
      <path fill="url(#d)" stroke="#fff" stroke-miterlimit="10" stroke-width=".75" d="M296.02 356.33l18.13 10.47 18.13-10.47v-20.94l-18.13-10.47-18.13 10.47z" opacity=".5"/>
      <linearGradient id="e" x1="129.181" x2="129.181" y1="-1" y2="279.003" gradientTransform="rotate(180 212.6 141.73)" gradientUnits="userSpaceOnUse">
        <stop offset="0" stop-color="#009eff"/>
        <stop offset=".5" stop-color="#ff1e64"/>
        <stop offset="1" stop-color="#009eff"/>
      </linearGradient>
      <path fill="url(#e)" stroke="#fff" stroke-miterlimit="10" stroke-width=".75" d="M277.89 199.31l18.13 10.46 18.13-10.46v-20.94l-18.13-10.47-18.13 10.47z" opacity=".8"/>
      <linearGradient id="f" x1="147.311" x2="147.311" y1="-1" y2="279.003" gradientTransform="rotate(180 212.6 141.73)" gradientUnits="userSpaceOnUse">
        <stop offset="0" stop-color="#009eff"/>
        <stop offset=".5" stop-color="#ff1e64"/>
        <stop offset="1" stop-color="#009eff"/>
      </linearGradient>
      <path fill="url(#f)" stroke="#fff" stroke-miterlimit="10" stroke-width=".75" d="M259.76 356.33l18.13 10.47 18.13-10.47v-20.94l-18.13-10.47-18.13 10.47z" opacity=".3"/>
      <linearGradient id="g" x1="129.181" x2="129.181" y1="-1" y2="279.002" gradientTransform="rotate(180 212.6 141.73)" gradientUnits="userSpaceOnUse">
        <stop offset="0" stop-color="#009eff"/>
        <stop offset=".5" stop-color="#ff1e64"/>
        <stop offset="1" stop-color="#009eff"/>
      </linearGradient>
      <path fill="url(#g)" stroke="#fff" stroke-miterlimit="10" stroke-width=".75" d="M277.89 324.92l18.13 10.47 18.13-10.47v-20.93l-18.13-10.47-18.13 10.47z" opacity=".8"/>
      <linearGradient id="h" x1="165.444" x2="165.444" y1="-1" y2="279.002" gradientTransform="rotate(180 212.6 141.73)" gradientUnits="userSpaceOnUse">
        <stop offset="0" stop-color="#009eff"/>
        <stop offset=".5" stop-color="#ff1e64"/>
        <stop offset="1" stop-color="#009eff"/>
      </linearGradient>
      <path fill="url(#h)" stroke="#fff" stroke-miterlimit="10" stroke-width=".75" d="M241.63 324.92l18.13 10.47 18.13-10.47v-20.93l-18.13-10.47-18.13 10.47z" opacity=".5"/>
      <linearGradient id="i" x1="111.049" x2="111.049" y1="-1" y2="279.003" gradientTransform="rotate(180 212.6 141.73)" gradientUnits="userSpaceOnUse">
        <stop offset="0" stop-color="#009eff"/>
        <stop offset=".5" stop-color="#ff1e64"/>
        <stop offset="1" stop-color="#009eff"/>
      </linearGradient>
      <path fill="url(#i)" stroke="#fff" stroke-miterlimit="10" stroke-width=".75" d="M296.02 293.52l18.13 10.47 18.13-10.47v-20.94l-18.13-10.46-18.13 10.46z" opacity=".5"/>
      <linearGradient id="j" x1="92.917" x2="92.917" y1="-1" y2="279.003" gradientTransform="rotate(180 212.6 141.73)" gradientUnits="userSpaceOnUse">
        <stop offset="0" stop-color="#009eff"/>
        <stop offset=".5" stop-color="#ff1e64"/>
        <stop offset="1" stop-color="#009eff"/>
      </linearGradient>
      <path fill="url(#j)" stroke="#fff" stroke-miterlimit="10" stroke-width=".75" d="M314.15 262.12l18.13 10.46 18.13-10.46v-20.94l-18.13-10.47-18.13 10.47z" opacity=".3"/>
      <linearGradient id="k" x1="92.917" x2="92.917" y1="-1" y2="279.003" gradientTransform="rotate(180 212.6 141.73)" gradientUnits="userSpaceOnUse">
        <stop offset="0" stop-color="#009eff"/>
        <stop offset=".5" stop-color="#ff1e64"/>
        <stop offset="1" stop-color="#009eff"/>
      </linearGradient>
      <path fill="url(#k)" stroke="#fff" stroke-miterlimit="10" stroke-width=".75" d="M314.15 199.31l18.13 10.46 18.13-10.46v-20.94l-18.13-10.47-18.13 10.47z" opacity=".3"/>
      <linearGradient id="l" x1="147.311" x2="147.311" y1="-1" y2="279.003" gradientTransform="rotate(180 212.6 141.73)" gradientUnits="userSpaceOnUse">
        <stop offset="0" stop-color="#009eff"/>
        <stop offset=".5" stop-color="#ff1e64"/>
        <stop offset="1" stop-color="#009eff"/>
      </linearGradient>
      <path fill="url(#l)" stroke="#fff" stroke-miterlimit="10" stroke-width=".75" d="M259.76 293.52l18.13 10.47 18.13-10.47v-20.94l-18.13-10.46-18.13 10.46z" opacity=".3"/>
      <linearGradient id="m" x1="111.049" x2="111.049" y1="-1" y2="279.003" gradientTransform="rotate(180 212.6 141.73)" gradientUnits="userSpaceOnUse">
        <stop offset="0" stop-color="#009eff"/>
        <stop offset=".5" stop-color="#ff1e64"/>
        <stop offset="1" stop-color="#009eff"/>
      </linearGradient>
      <path fill="url(#m)" stroke="#fff" stroke-miterlimit="10" stroke-width=".75" d="M296.02 230.71l18.13 10.47 18.13-10.47v-20.94l-18.13-10.46-18.13 10.46z" opacity=".5"/>
      <linearGradient id="n" x1="165.444" x2="165.444" y1="-1" y2="279.003" gradientTransform="rotate(180 212.6 141.73)" gradientUnits="userSpaceOnUse">
        <stop offset="0" stop-color="#009eff"/>
        <stop offset=".5" stop-color="#ff1e64"/>
        <stop offset="1" stop-color="#009eff"/>
      </linearGradient>
      <path fill="url(#n)" stroke="#fff" stroke-miterlimit="10" stroke-width=".75" d="M241.63 262.12l18.13 10.46 18.13-10.46v-20.94l-18.13-10.47-18.13 10.47z" opacity=".5"/>
      <linearGradient id="o" x1="147.311" x2="147.311" y1="-1" y2="279.003" gradientTransform="rotate(180 212.6 141.73)" gradientUnits="userSpaceOnUse">
        <stop offset="0" stop-color="#009eff"/>
        <stop offset=".5" stop-color="#ff1e64"/>
        <stop offset="1" stop-color="#009eff"/>
      </linearGradient>
      <path fill="url(#o)" stroke="#fff" stroke-miterlimit="10" stroke-width=".75" d="M259.76 230.71l18.13 10.47 18.13-10.47v-20.94l-18.13-10.46-18.13 10.46z" opacity=".8"/>
      <linearGradient id="p" x1="147.311" x2="147.311" y1="-.999" y2="279.001" gradientTransform="rotate(180 212.6 141.73)" gradientUnits="userSpaceOnUse">
        <stop offset="0" stop-color="#009eff"/>
        <stop offset=".5" stop-color="#ff1e64"/>
        <stop offset="1" stop-color="#009eff"/>
      </linearGradient>
      <path fill="url(#p)" stroke="#fff" stroke-miterlimit="10" stroke-width=".75" d="M259.76 167.9l18.13 10.47 18.13-10.47v-20.94l-18.13-10.46-18.13 10.46z" opacity=".5"/>
      <linearGradient id="q" x1="111.049" x2="111.049" y1="-1.001" y2="279.002" gradientTransform="rotate(180 212.6 141.73)" gradientUnits="userSpaceOnUse">
        <stop offset="0" stop-color="#009eff"/>
        <stop offset=".5" stop-color="#ff1e64"/>
        <stop offset="1" stop-color="#009eff"/>
      </linearGradient>
      <path fill="url(#q)" stroke="#fff" stroke-miterlimit="10" stroke-width=".75" d="M296.02-104.27l18.13-10.47 18.13 10.47v20.94l-18.13 10.46-18.13-10.46z" opacity=".3"/>
      <linearGradient id="r" x1="92.917" x2="92.917" y1="-1" y2="279.003" gradientTransform="rotate(180 212.6 141.73)" gradientUnits="userSpaceOnUse">
        <stop offset="0" stop-color="#009eff"/>
        <stop offset=".5" stop-color="#ff1e64"/>
        <stop offset="1" stop-color="#009eff"/>
      </linearGradient>
      <path fill="url(#r)" stroke="#fff" stroke-miterlimit="10" stroke-width=".75" d="M314.15-72.87l18.13-10.46 18.13 10.46v20.94l-18.13 10.47-18.13-10.47z" opacity=".5"/>
      <linearGradient id="s" x1="111.049" x2="111.049" y1="-1.001" y2="279.003" gradientTransform="rotate(180 212.6 141.73)" gradientUnits="userSpaceOnUse">
        <stop offset="0" stop-color="#009eff"/>
        <stop offset=".5" stop-color="#ff1e64"/>
        <stop offset="1" stop-color="#009eff"/>
      </linearGradient>
      <path fill="url(#s)" stroke="#fff" stroke-miterlimit="10" stroke-width=".75" d="M296.02 84.16l18.13-10.47 18.13 10.47v20.93l-18.13 10.47-18.13-10.47z" opacity=".3"/>
      <linearGradient id="t" x1="92.917" x2="92.917" y1="-.999" y2="279.002" gradientTransform="rotate(180 212.6 141.73)" gradientUnits="userSpaceOnUse">
        <stop offset="0" stop-color="#009eff"/>
        <stop offset=".5" stop-color="#ff1e64"/>
        <stop offset="1" stop-color="#009eff"/>
      </linearGradient>
      <path fill="url(#t)" stroke="#fff" stroke-miterlimit="10" stroke-width=".75" d="M314.15 115.56l18.13-10.47 18.13 10.47v20.94l-18.13 10.46-18.13-10.46z" opacity=".5"/>
      <linearGradient id="u" x1="74.786" x2="74.786" y1="-.999" y2="279.001" gradientTransform="rotate(180 212.6 141.73)" gradientUnits="userSpaceOnUse">
        <stop offset="0" stop-color="#009eff"/>
        <stop offset=".5" stop-color="#ff1e64"/>
        <stop offset="1" stop-color="#009eff"/>
      </linearGradient>
      <path fill="url(#u)" stroke="#fff" stroke-miterlimit="10" stroke-width=".75" d="M332.28 146.96l18.13-10.46 18.14 10.46v20.94l-18.14 10.47-18.13-10.47z" opacity=".8"/>
      <linearGradient id="v" x1="129.181" x2="129.181" y1="-1" y2="279.003" gradientTransform="rotate(180 212.6 141.73)" gradientUnits="userSpaceOnUse">
        <stop offset="0" stop-color="#009eff"/>
        <stop offset=".5" stop-color="#ff1e64"/>
        <stop offset="1" stop-color="#009eff"/>
      </linearGradient>
      <path fill="url(#v)" stroke="#fff" stroke-miterlimit="10" stroke-width=".75" d="M277.89-72.87l18.13-10.46 18.13 10.46v20.94l-18.13 10.47-18.13-10.47z" opacity=".8"/>
      <linearGradient id="w" x1="111.049" x2="111.049" y1="-1" y2="279.003" gradientTransform="rotate(180 212.6 141.73)" gradientUnits="userSpaceOnUse">
        <stop offset="0" stop-color="#009eff"/>
        <stop offset=".5" stop-color="#ff1e64"/>
        <stop offset="1" stop-color="#009eff"/>
      </linearGradient>
      <path fill="url(#w)" stroke="#fff" stroke-miterlimit="10" stroke-width=".75" d="M296.02-41.46l18.13-10.47 18.13 10.47v20.93l-18.13 10.47-18.13-10.47z" opacity=".3"/>
      <linearGradient id="x" x1="147.311" x2="147.311" y1="-1" y2="279.003" gradientTransform="rotate(180 212.6 141.73)" gradientUnits="userSpaceOnUse">
        <stop offset="0" stop-color="#009eff"/>
        <stop offset=".5" stop-color="#ff1e64"/>
        <stop offset="1" stop-color="#009eff"/>
      </linearGradient>
      <path fill="url(#x)" stroke="#fff" stroke-miterlimit="10" stroke-width=".75" d="M259.76-41.46l18.13-10.47 18.13 10.47v20.93l-18.13 10.47-18.13-10.47z" opacity=".5"/>
      <linearGradient id="y" x1="92.917" x2="92.917" y1="-1" y2="279.002" gradientTransform="rotate(180 212.6 141.73)" gradientUnits="userSpaceOnUse">
        <stop offset="0" stop-color="#009eff"/>
        <stop offset=".5" stop-color="#ff1e64"/>
        <stop offset="1" stop-color="#009eff"/>
      </linearGradient>
      <path fill="url(#y)" stroke="#fff" stroke-miterlimit="10" stroke-width=".75" d="M314.15-10.06l18.13-10.47 18.13 10.47v20.94l-18.13 10.47-18.13-10.47z" opacity=".5"/>
      <linearGradient id="z" x1="74.786" x2="74.786" y1="-1" y2="279.002" gradientTransform="rotate(180 212.6 141.73)" gradientUnits="userSpaceOnUse">
        <stop offset="0" stop-color="#009eff"/>
        <stop offset=".5" stop-color="#ff1e64"/>
        <stop offset="1" stop-color="#009eff"/>
      </linearGradient>
      <path fill="url(#z)" stroke="#fff" stroke-miterlimit="10" stroke-width=".75" d="M332.28 21.35l18.13-10.47 18.14 10.47v20.93l-18.14 10.47-18.13-10.47z" opacity=".8"/>
      <linearGradient id="A" x1="74.786" x2="74.786" y1="-1.001" y2="279.003" gradientTransform="rotate(180 212.6 141.73)" gradientUnits="userSpaceOnUse">
        <stop offset="0" stop-color="#009eff"/>
        <stop offset=".5" stop-color="#ff1e64"/>
        <stop offset="1" stop-color="#009eff"/>
      </linearGradient>
      <path fill="url(#A)" stroke="#fff" stroke-miterlimit="10" stroke-width=".75" d="M332.28 84.16l18.13-10.47 18.14 10.47v20.93l-18.14 10.47-18.13-10.47z" opacity=".8"/>
      <linearGradient id="B" x1="129.181" x2="129.181" y1="-1" y2="279.002" gradientTransform="rotate(180 212.6 141.73)" gradientUnits="userSpaceOnUse">
        <stop offset="0" stop-color="#009eff"/>
        <stop offset=".5" stop-color="#ff1e64"/>
        <stop offset="1" stop-color="#009eff"/>
      </linearGradient>
      <path fill="url(#B)" stroke="#fff" stroke-miterlimit="10" stroke-width=".75" d="M277.89-10.06l18.13-10.47 18.13 10.47v20.94l-18.13 10.47-18.13-10.47z" opacity=".8"/>
      <linearGradient id="C" x1="92.917" x2="92.917" y1="-1" y2="279.003" gradientTransform="rotate(180 212.6 141.73)" gradientUnits="userSpaceOnUse">
        <stop offset="0" stop-color="#009eff"/>
        <stop offset=".5" stop-color="#ff1e64"/>
        <stop offset="1" stop-color="#009eff"/>
      </linearGradient>
      <path fill="url(#C)" stroke="#fff" stroke-miterlimit="10" stroke-width=".75" d="M314.15 52.75l18.13-10.47 18.13 10.47v20.94l-18.13 10.47-18.13-10.47z" opacity=".5"/>
      <linearGradient id="D" x1="147.311" x2="147.311" y1="-1" y2="279.002" gradientTransform="rotate(180 212.6 141.73)" gradientUnits="userSpaceOnUse">
        <stop offset="0" stop-color="#009eff"/>
        <stop offset=".5" stop-color="#ff1e64"/>
        <stop offset="1" stop-color="#009eff"/>
      </linearGradient>
      <path fill="url(#D)" stroke="#fff" stroke-miterlimit="10" stroke-width=".75" d="M259.76 21.35l18.13-10.47 18.13 10.47v20.93l-18.13 10.47-18.13-10.47z" opacity=".5"/>
      <linearGradient id="E" x1="129.181" x2="129.181" y1="-1" y2="279.003" gradientTransform="rotate(180 212.6 141.73)" gradientUnits="userSpaceOnUse">
        <stop offset="0" stop-color="#009eff"/>
        <stop offset=".5" stop-color="#ff1e64"/>
        <stop offset="1" stop-color="#009eff"/>
      </linearGradient>
      <path fill="url(#E)" stroke="#fff" stroke-miterlimit="10" stroke-width=".75" d="M277.89 52.75l18.13-10.47 18.13 10.47v20.94l-18.13 10.47-18.13-10.47z" opacity=".8"/>
      <linearGradient id="F" x1="165.444" x2="165.444" y1="-.999" y2="279.002" gradientTransform="rotate(180 212.6 141.73)" gradientUnits="userSpaceOnUse">
        <stop offset="0" stop-color="#009eff"/>
        <stop offset=".5" stop-color="#ff1e64"/>
        <stop offset="1" stop-color="#009eff"/>
      </linearGradient>
      <path fill="url(#F)" stroke="#fff" stroke-miterlimit="10" stroke-width=".75" d="M241.63 115.56l18.13-10.47 18.13 10.47v20.94l-18.13 10.46-18.13-10.46z" opacity=".3"/>
      <linearGradient id="G" x1="129.181" x2="129.181" y1="-.999" y2="279.002" gradientTransform="rotate(180 212.6 141.73)" gradientUnits="userSpaceOnUse">
        <stop offset="0" stop-color="#009eff"/>
        <stop offset=".5" stop-color="#ff1e64"/>
        <stop offset="1" stop-color="#009eff"/>
      </linearGradient>
      <path fill="url(#G)" stroke="#fff" stroke-miterlimit="10" stroke-width=".75" d="M277.89 115.56l18.13-10.47 18.13 10.47v20.94l-18.13 10.46-18.13-10.46z" opacity=".8"/>
    </g>
    <linearGradient id="H" x1="120.115" x2="120.115" y1="-1" y2="279.003" gradientTransform="rotate(180 212.6 141.73)" gradientUnits="userSpaceOnUse">
      <stop offset="0" stop-color="#009eff"/>
      <stop offset=".5" stop-color="#ff1e64"/>
      <stop offset="1" stop-color="#009eff"/>
    </linearGradient>
    <path fill="url(#H)" d="M334.7-199.58c0 .31-.02.67-.05 1.08-.03.41-.06.87-.1 1.38-.06.51-.13 1.06-.2 1.67-.08.6-.2 1.25-.32 1.95-.07.34-.15.7-.23 1.07-.08.37-.15.75-.26 1.13-.78 3.09-2.15 6.83-4.62 10.74-.21.33-.42.66-.65.99-.08-.01-.2-.03-.34-.04-.34-.04-.85-.11-1.48-.17-.64-.06-1.41-.15-2.3-.22-.89-.08-1.89-.16-2.99-.23-1.1-.07-2.28-.15-3.54-.21a213.1 213.1 0 00-3.95-.16c-1.37-.04-2.78-.08-4.22-.1-1.44-.02-2.9-.03-4.36-.04-1.46.01-2.92.01-4.36.04-1.44.02-2.85.05-4.22.1-1.37.04-2.69.1-3.95.16-1.25.06-2.44.14-3.54.21-1.09.06-2.1.15-2.99.23-.89.07-1.67.15-2.3.21-.64.06-1.14.13-1.48.17-.15.02-.26.03-.35.04-.22-.33-.44-.66-.65-.99a37.087 37.087 0 01-4.62-10.73c-.11-.38-.18-.76-.26-1.13-.08-.37-.15-.72-.23-1.07-.11-.7-.23-1.34-.31-1.95-.07-.6-.14-1.16-.2-1.67-.04-.51-.07-.97-.1-1.38-.04-.41-.05-.77-.05-1.08-.01-.31-.02-.57-.02-.78-.01-.42-.02-.63-.02-.63s0 .21.01.63c0 .21.01.47.01.78 0 .31.01.67.04 1.09.02.41.05.87.08 1.38.06.51.11 1.07.18 1.67.07.61.19 1.25.29 1.95.07.35.14.7.21 1.07.07.37.14.75.25 1.14.74 3.11 2.07 6.89 4.51 10.85 1.21 1.98 2.69 4.01 4.44 6.03 1.74 2.02 3.76 4.01 5.99 6.01 2.24 1.98 4.69 3.96 7.32 5.96 1.84 1.4 3.78 2.82 5.76 4.27-.61.44-1.22.87-1.84 1.32-2.92 2.1-5.95 4.31-8.97 6.77-3.02 2.46-6.02 5.19-8.78 8.35-2.75 3.16-5.21 6.79-6.98 10.91-1.78 4.11-2.81 8.67-3.04 13.39-.22 4.69.23 9.62 1.72 14.37a36.63 36.63 0 002.97 6.93c1.23 2.23 2.7 4.35 4.33 6.37 1.63 2.02 3.44 3.91 5.35 5.72 1.92 1.81 3.94 3.53 6.03 5.2 2.73 2.17 5.57 4.26 8.45 6.36-.96.69-1.93 1.39-2.9 2.09-2.23 1.62-4.47 3.29-6.67 5.07-2.2 1.77-4.35 3.64-6.41 5.66a54.92 54.92 0 00-5.73 6.59c-.85 1.2-1.68 2.43-2.41 3.72-.39.63-.71 1.31-1.06 1.96-.17.33-.32.68-.48 1.01-.16.34-.32.68-.46 1.03-1.18 2.76-2.06 5.67-2.54 8.67l-.18 1.13-.13 1.13c-.1.75-.14 1.52-.19 2.29-.03.39-.04.76-.05 1.14l-.02 1.12c0 .07-.01.21 0 .3v.29l.01.57.03 1.15c.14 3.07.6 6.15 1.43 9.16.87 3 2.07 5.93 3.65 8.65 1.56 2.74 3.47 5.28 5.57 7.65a66.43 66.43 0 003.3 3.42c1.15 1.09 2.32 2.16 3.53 3.19 3.61 3.08 7.43 5.89 11.28 8.69-.53.38-1.07.77-1.6 1.16-5.17 3.76-10.4 7.68-15.01 12.42-.58.59-1.13 1.21-1.69 1.81-.54.63-1.09 1.25-1.61 1.9-.53.64-1.02 1.31-1.53 1.99-.48.69-.97 1.36-1.41 2.08-.46.7-.88 1.43-1.3 2.16-.39.74-.8 1.48-1.15 2.25-.37.76-.69 1.54-1.01 2.32-.16.39-.29.8-.44 1.19l-.21.6-.19.61c-.53 1.61-.9 3.27-1.21 4.93l-.2 1.26c-.07.42-.1.84-.16 1.26-.11.84-.15 1.69-.21 2.54-.04.42-.03.85-.04 1.27l-.02.64-.01.32c-.01.1 0 .26 0 .34l.02 1.24c0 .21 0 .41.02.63l.04.64.08 1.29.14 1.27.07.64.1.63.2 1.27c.33 1.68.74 3.35 1.27 4.98.55 1.63 1.18 3.23 1.94 4.78.76 1.54 1.61 3.04 2.56 4.48a49.63 49.63 0 003.07 4.13c1.1 1.31 2.26 2.58 3.47 3.79 1.21 1.21 2.46 2.37 3.75 3.5 2.57 2.25 5.26 4.34 7.98 6.37 1.35 1.01 2.71 2 4.08 2.99-3.27 2.36-6.54 4.75-9.69 7.34a95.535 95.535 0 00-3.91 3.38 74.7 74.7 0 00-3.69 3.65c-2.36 2.54-4.52 5.31-6.29 8.35-.45.75-.85 1.54-1.26 2.31-.37.79-.76 1.58-1.08 2.4-.35.81-.63 1.64-.93 2.47-.26.84-.54 1.68-.74 2.53-.24.85-.4 1.71-.58 2.57-.08.43-.14.87-.21 1.3l-.11.65-.07.65-.14 1.31-.09 1.33-.04.66-.01.64-.03 1.28.03 1.34.01.66c.01.22.03.44.04.66l.09 1.31.14 1.31.07.65.1.65c.07.43.13.87.21 1.3.18.86.34 1.73.58 2.57.2.86.48 1.69.74 2.53.3.83.58 1.66.93 2.47.32.82.71 1.61 1.08 2.4.41.78.8 1.56 1.26 2.31 1.76 3.04 3.92 5.81 6.28 8.35 1.19 1.27 2.42 2.48 3.69 3.65 1.27 1.16 2.58 2.29 3.9 3.38 3.16 2.58 6.42 4.97 9.69 7.33-1.36.99-2.72 1.98-4.07 2.98-2.72 2.03-5.41 4.12-7.98 6.37a82.571 82.571 0 00-3.75 3.5c-1.2 1.22-2.36 2.48-3.47 3.79-1.09 1.33-2.12 2.7-3.07 4.14-.94 1.44-1.79 2.94-2.56 4.48-.76 1.55-1.39 3.15-1.94 4.78-.54 1.63-.95 3.3-1.27 4.98l-.2 1.27-.1.63-.07.64-.14 1.27-.08 1.27-.04.64c-.01.21-.01.42-.01.64l-.03 1.27v.34l.01.31.01.62c.02.42.01.82.04 1.25.06.86.1 1.72.21 2.56.05.42.09.84.16 1.26l.2 1.26c.31 1.67.68 3.33 1.21 4.94l.19.61.21.6c.15.4.28.8.44 1.19.32.78.64 1.57 1.01 2.32.35.77.76 1.51 1.15 2.25.42.73.83 1.46 1.3 2.16.44.72.93 1.39 1.41 2.08.5.67 1 1.34 1.53 1.98.51.66 1.07 1.27 1.61 1.9.56.61 1.11 1.23 1.69 1.81 4.61 4.74 9.84 8.66 15.01 12.43l1.61 1.16c-3.85 2.8-7.68 5.61-11.29 8.69-1.21 1.03-2.38 2.1-3.53 3.19-1.13 1.11-2.25 2.23-3.3 3.42-2.1 2.37-4.01 4.91-5.57 7.65-1.59 2.72-2.79 5.65-3.65 8.65-.39 1.51-.76 3.02-.97 4.56-.25 1.53-.37 3.07-.46 4.62-.25 6.07.68 12.27 3.08 17.77.14.35.3.69.46 1.02.16.34.32.68.48 1.01.35.66.68 1.33 1.07 1.97.73 1.3 1.56 2.52 2.41 3.72 1.74 2.37 3.67 4.58 5.73 6.59 2.06 2.02 4.21 3.9 6.41 5.66 2.2 1.77 4.44 3.44 6.67 5.07.97.7 1.93 1.4 2.89 2.09-2.88 2.09-5.72 4.18-8.45 6.36a91.472 91.472 0 00-6.03 5.2c-1.91 1.81-3.73 3.7-5.35 5.72-1.63 2.02-3.09 4.14-4.33 6.37a37.287 37.287 0 00-2.97 6.93c-1.49 4.75-1.95 9.67-1.72 14.36.23 4.74 1.27 9.29 3.04 13.4 1.77 4.12 4.23 7.75 6.98 10.91s5.76 5.89 8.78 8.35c3.02 2.46 6.05 4.67 8.97 6.77.62.45 1.23.88 1.84 1.32-1.99 1.45-3.92 2.87-5.76 4.27-2.63 1.99-5.08 3.97-7.32 5.95-2.23 2-4.25 3.99-5.99 6.01-1.74 2.02-3.22 4.04-4.44 6.02a37.152 37.152 0 00-4.51 10.85c-.1.39-.17.77-.25 1.14-.07.37-.14.73-.21 1.07-.1.7-.21 1.35-.29 1.95-.06.61-.12 1.16-.18 1.67-.03.51-.06.97-.08 1.39-.03.41-.04.77-.04 1.09-.01.31-.01.57-.01.78 0 .42-.01.63-.01.63s.01-.21.02-.63c0-.21.01-.47.02-.78.01-.31.02-.68.05-1.09.03-.41.06-.87.1-1.38.06-.51.13-1.06.2-1.67.08-.6.2-1.25.31-1.95.07-.34.15-.7.23-1.07.08-.37.15-.75.26-1.13.78-3.09 2.15-6.83 4.62-10.74.2-.32.42-.64.63-.97.08.01.2.03.35.05.34.04.84.11 1.48.17.64.06 1.41.15 2.3.22.89.08 1.89.16 2.99.23 1.09.07 2.28.15 3.54.21 1.26.06 2.58.12 3.95.16 1.37.04 2.78.08 4.22.1 1.44.03 2.9.03 4.36.04 1.46-.01 2.92-.01 4.36-.04 1.44-.02 2.85-.06 4.22-.1 1.37-.04 2.69-.1 3.95-.16 1.25-.06 2.44-.14 3.54-.21 1.1-.07 2.1-.15 2.99-.23.89-.07 1.67-.15 2.31-.22.64-.06 1.14-.13 1.48-.17.15-.02.27-.03.35-.05.22.32.43.65.63.97 2.47 3.91 3.85 7.65 4.62 10.74.11.38.18.76.26 1.13.08.37.15.72.23 1.07.11.7.23 1.34.31 1.94.07.6.14 1.16.2 1.67.04.51.07.97.1 1.38.04.41.05.77.06 1.09.01.31.02.57.02.78.01.42.02.63.02.63s0-.21-.01-.63c0-.21-.01-.47-.01-.78 0-.31-.01-.68-.04-1.09-.02-.41-.05-.87-.08-1.39-.05-.51-.11-1.07-.18-1.67-.07-.6-.19-1.25-.29-1.95-.07-.35-.14-.7-.21-1.07-.07-.37-.15-.75-.25-1.14-.74-3.11-2.07-6.88-4.51-10.85a44.776 44.776 0 00-4.44-6.02c-1.74-2.02-3.76-4.01-5.99-6.01-2.24-1.98-4.69-3.96-7.32-5.96-1.84-1.4-3.78-2.82-5.76-4.27.61-.44 1.22-.87 1.84-1.32 2.92-2.1 5.95-4.31 8.97-6.77 3.02-2.46 6.03-5.19 8.78-8.35 2.75-3.16 5.21-6.79 6.98-10.91 1.78-4.11 2.81-8.68 3.04-13.39.22-4.69-.23-9.62-1.72-14.37-.75-2.37-1.73-4.71-2.97-6.93-1.23-2.23-2.7-4.35-4.32-6.37-1.63-2.02-3.44-3.91-5.35-5.72-1.91-1.81-3.94-3.53-6.03-5.2-2.73-2.18-5.57-4.26-8.45-6.36.96-.69 1.93-1.39 2.9-2.09 2.23-1.62 4.47-3.3 6.67-5.07 2.2-1.77 4.35-3.64 6.41-5.66 2.06-2.02 3.99-4.22 5.73-6.59.85-1.2 1.69-2.43 2.41-3.72.38-.64.71-1.31 1.06-1.96.17-.33.32-.67.48-1.01.16-.34.32-.68.46-1.02 1.18-2.76 2.05-5.67 2.54-8.67l.18-1.13.13-1.13c.1-.75.14-1.52.19-2.29.03-.39.04-.76.05-1.14l.03-1.12c0-.08.01-.21.01-.3l-.01-.29-.01-.57-.02-1.15c-.14-3.07-.6-6.15-1.43-9.16-.86-3-2.07-5.93-3.65-8.65-1.56-2.74-3.47-5.28-5.57-7.65a66.43 66.43 0 00-3.3-3.42 89.056 89.056 0 00-3.53-3.19c-3.61-3.08-7.43-5.89-11.28-8.69.53-.38 1.07-.77 1.6-1.16 5.18-3.76 10.4-7.68 15.01-12.43.58-.59 1.13-1.2 1.69-1.81.54-.63 1.1-1.25 1.61-1.9.53-.64 1.02-1.32 1.52-1.98.48-.69.97-1.36 1.41-2.08.46-.7.87-1.43 1.3-2.16.39-.75.8-1.48 1.15-2.25.37-.76.69-1.54 1.01-2.32.16-.39.29-.79.44-1.19l.21-.6.19-.61c.53-1.61.9-3.27 1.21-4.94l.2-1.26c.07-.42.1-.84.16-1.26.11-.84.15-1.69.21-2.54.04-.42.03-.85.05-1.27l.01-.64.01-.32v-.34l-.03-1.24c0-.21 0-.41-.01-.62l-.04-.65-.08-1.29-.14-1.27-.07-.64-.1-.63-.2-1.27a39.08 39.08 0 00-1.27-4.98c-.55-1.63-1.18-3.23-1.94-4.78-.76-1.54-1.61-3.04-2.56-4.48-.95-1.43-1.98-2.81-3.07-4.14-1.1-1.32-2.26-2.58-3.47-3.79a82.34 82.34 0 00-3.74-3.5c-2.57-2.25-5.26-4.34-7.98-6.37-1.35-1.01-2.71-2-4.08-2.99 3.26-2.36 6.54-4.75 9.69-7.34 1.33-1.09 2.63-2.21 3.9-3.38s2.5-2.38 3.69-3.65c2.36-2.54 4.52-5.31 6.28-8.35.45-.75.85-1.53 1.26-2.31.37-.8.76-1.58 1.08-2.4.35-.81.63-1.64.93-2.47.26-.84.54-1.68.74-2.53.24-.85.39-1.71.58-2.57.08-.43.14-.87.21-1.3l.1-.65.08-.65.14-1.31.09-1.33.04-.66.01-.64.03-1.28-.03-1.34-.02-.66c-.01-.22-.03-.44-.04-.66l-.09-1.31-.14-1.31-.07-.65-.1-.65c-.07-.43-.13-.87-.21-1.3-.18-.86-.34-1.72-.58-2.57-.2-.85-.48-1.69-.74-2.53-.3-.83-.58-1.66-.93-2.47-.32-.82-.71-1.61-1.08-2.4-.41-.78-.8-1.56-1.26-2.31-1.76-3.04-3.92-5.81-6.28-8.35a70.532 70.532 0 00-3.69-3.65c-1.27-1.16-2.58-2.28-3.9-3.38-3.16-2.58-6.42-4.97-9.69-7.33 1.36-.99 2.72-1.98 4.07-2.99 2.72-2.03 5.41-4.12 7.98-6.37 1.28-1.13 2.54-2.29 3.75-3.5 1.2-1.22 2.36-2.48 3.47-3.79a49.63 49.63 0 003.07-4.13c.94-1.44 1.79-2.94 2.56-4.48.76-1.55 1.39-3.15 1.94-4.78.54-1.63.94-3.3 1.27-4.98l.2-1.27.1-.63.07-.64.14-1.27.08-1.27.04-.64c.01-.21.01-.42.01-.64l.03-1.27v-.34l-.01-.31-.01-.62c-.01-.42-.01-.82-.04-1.25-.06-.86-.11-1.72-.21-2.56-.06-.42-.08-.84-.16-1.26l-.2-1.26c-.31-1.67-.68-3.33-1.21-4.93l-.19-.61-.21-.6c-.15-.4-.28-.8-.44-1.19-.32-.78-.64-1.56-1.01-2.32-.34-.77-.76-1.51-1.15-2.25-.42-.73-.83-1.46-1.3-2.16-.44-.72-.93-1.39-1.41-2.08-.5-.67-.99-1.34-1.53-1.99-.51-.66-1.07-1.27-1.61-1.9-.56-.61-1.11-1.23-1.69-1.81-4.61-4.74-9.83-8.66-15.01-12.42-.54-.39-1.07-.78-1.61-1.16 3.85-2.8 7.68-5.61 11.28-8.69a81.89 81.89 0 003.53-3.19c1.13-1.1 2.25-2.24 3.3-3.42 2.1-2.37 4.01-4.91 5.57-7.65 1.59-2.72 2.79-5.65 3.65-8.65.4-1.51.76-3.02.97-4.56.25-1.53.37-3.07.46-4.62.25-6.07-.68-12.27-3.09-17.77-.14-.35-.3-.69-.46-1.03-.16-.34-.31-.68-.48-1.01-.35-.66-.68-1.33-1.06-1.96-.73-1.3-1.56-2.52-2.41-3.72a53.303 53.303 0 00-5.73-6.59c-2.05-2.02-4.21-3.9-6.41-5.66-2.2-1.77-4.44-3.44-6.67-5.06-.97-.7-1.93-1.4-2.89-2.09 2.87-2.09 5.72-4.18 8.45-6.36 2.1-1.66 4.12-3.39 6.03-5.19 1.91-1.81 3.72-3.7 5.35-5.72a44.4 44.4 0 004.33-6.37c1.24-2.22 2.22-4.56 2.97-6.93 1.49-4.75 1.95-9.67 1.73-14.36-.23-4.74-1.27-9.29-3.05-13.4-1.76-4.12-4.23-7.75-6.98-10.91s-5.76-5.89-8.78-8.35c-3.02-2.46-6.05-4.67-8.97-6.77-.62-.44-1.23-.88-1.84-1.32 1.99-1.45 3.92-2.87 5.76-4.27 2.63-1.99 5.08-3.97 7.32-5.96 2.23-2 4.25-3.99 5.99-6.01 1.74-2.02 3.22-4.04 4.44-6.02 2.44-3.97 3.77-7.75 4.51-10.85.1-.39.17-.77.25-1.14.07-.37.15-.73.21-1.07.1-.7.22-1.35.29-1.95.06-.61.12-1.17.18-1.67.03-.51.06-.97.08-1.38.03-.41.04-.78.04-1.09 0-.31.01-.57.01-.78.01-.42.01-.63.01-.63s-.01.21-.02.63c.02.19.01.45.01.77zm-23.64 645.93c2.65 1.96 5.11 3.9 7.36 5.85 2.24 1.96 4.26 3.92 6.02 5.9 1.45 1.64 2.72 3.28 3.81 4.91-.08-.01-.19-.02-.32-.04-.34-.04-.85-.11-1.48-.17-.64-.06-1.41-.15-2.31-.22-.89-.08-1.9-.16-2.99-.23-1.09-.08-2.28-.15-3.54-.21a213.1 213.1 0 00-3.95-.16c-1.37-.04-2.78-.08-4.22-.1-1.44-.03-2.9-.03-4.36-.04-1.46.01-2.92.01-4.36.04-1.44.02-2.85.06-4.22.1-1.37.04-2.69.1-3.95.16-1.25.06-2.44.14-3.54.21-1.1.06-2.1.15-2.99.23-.89.07-1.67.15-2.3.22-.64.06-1.14.13-1.48.17-.13.02-.24.03-.32.04 1.09-1.62 2.36-3.27 3.82-4.91 1.75-1.99 3.78-3.94 6.01-5.91 2.25-1.95 4.71-3.89 7.35-5.85 1.91-1.42 3.91-2.85 5.98-4.33 2.07 1.49 4.08 2.92 5.98 4.34zm4.89-13.43c-2.98 2.47-5.97 4.71-8.87 6.83-.67.49-1.34.98-2 1.46-.66-.48-1.33-.97-2-1.46-2.89-2.13-5.89-4.36-8.87-6.83-2.97-2.47-5.92-5.19-8.6-8.33a45.482 45.482 0 01-3.26-4.31c.33.04.79.1 1.36.15.64.06 1.41.15 2.3.22.89.08 1.89.16 2.99.23 1.1.07 2.28.15 3.54.21 1.26.06 2.58.12 3.95.16 1.37.04 2.78.08 4.22.1 1.44.03 2.9.03 4.36.04 1.46-.01 2.92-.01 4.36-.03 1.44-.02 2.85-.06 4.22-.1 1.37-.04 2.69-.1 3.95-.16 1.25-.06 2.44-.14 3.54-.21 1.1-.06 2.1-.15 2.99-.23.89-.07 1.67-.15 2.31-.22.57-.05 1.03-.11 1.36-.15-1.01 1.52-2.1 2.96-3.26 4.31-2.66 3.13-5.62 5.85-8.59 8.32zm18.17-32.09c-.19 4.6-1.15 9.03-2.84 13.05-.93 2.22-2.08 4.31-3.36 6.26-.34-.04-.84-.11-1.47-.17-.64-.07-1.41-.15-2.31-.22-.89-.08-1.9-.16-2.99-.23-1.09-.07-2.28-.15-3.54-.21a213.1 213.1 0 00-3.95-.16c-1.37-.04-2.78-.08-4.22-.1-1.44-.03-2.9-.03-4.36-.04-1.46.01-2.92.01-4.36.04-1.44.02-2.85.06-4.22.1-1.37.04-2.69.1-3.95.16-1.25.06-2.44.14-3.54.21-1.1.06-2.1.15-2.99.23-.89.07-1.67.15-2.3.22-.63.06-1.12.13-1.46.17a37.504 37.504 0 01-3.36-6.26c-1.69-4.01-2.66-8.46-2.84-13.03-.02-.58-.02-1.17-.04-1.75v-.25c.03 0 .05 0 .08.01.43.04 1.07.11 1.88.17.81.06 1.8.15 2.93.22 1.13.08 2.4.16 3.79.23 1.39.07 2.89.15 4.49.21 1.59.06 3.27.12 5.01.16 1.74.04 3.53.08 5.36.1 1.82.03 3.68.03 5.53.04 1.85-.01 3.71-.01 5.53-.04 1.82-.02 3.62-.06 5.36-.1 1.74-.04 3.41-.1 5.01-.16 1.59-.06 3.1-.14 4.49-.21 1.39-.07 2.66-.15 3.79-.23 1.13-.07 2.11-.15 2.92-.22.81-.06 1.45-.13 1.88-.17.03 0 .05-.01.08-.01 0 .66-.01 1.32-.03 1.98zm-4.69-20.61c1.21 2.14 2.17 4.39 2.91 6.68.74 2.29 1.23 4.63 1.51 6.96.19 1.62.29 3.25.3 4.86-.03 0-.05 0-.08-.01-.43-.04-1.07-.11-1.88-.17-.81-.06-1.79-.15-2.92-.22-1.13-.08-2.4-.16-3.79-.23-1.39-.07-2.9-.15-4.49-.21-1.59-.06-3.27-.12-5.01-.16-1.74-.04-3.53-.08-5.36-.1-1.83-.03-3.68-.03-5.53-.03-1.85.01-3.71.01-5.53.04-1.82.02-3.62.06-5.36.1-1.74.04-3.42.1-5.01.16-1.59.06-3.1.14-4.49.21-1.39.06-2.66.15-3.79.23-1.13.07-2.12.15-2.93.22-.81.06-1.45.13-1.88.17-.03 0-.05.01-.08.01.01-.45.03-.91.03-1.36 0-.58.06-1.16.1-1.75.03-.58.1-1.17.17-1.75.28-2.34.77-4.67 1.51-6.96s1.7-4.53 2.91-6.67c.53-.94 1.1-1.86 1.71-2.76.33.04.75.09 1.27.14.64.06 1.41.15 2.3.22.89.08 1.89.16 2.99.23 1.1.07 2.28.15 3.54.21 1.26.06 2.58.12 3.95.16 1.37.04 2.78.08 4.22.1 1.44.03 2.9.03 4.36.04 1.46-.01 2.92-.01 4.36-.04 1.44-.02 2.85-.06 4.22-.1 1.37-.04 2.69-.1 3.95-.16 1.25-.06 2.44-.14 3.54-.21 1.1-.07 2.1-.15 2.99-.23.89-.07 1.67-.15 2.31-.22.52-.05.94-.1 1.27-.14.6.88 1.18 1.8 1.71 2.74zm-15.48-16.77c4.15 3.27 8.04 6.73 11.24 10.63.85 1.03 1.64 2.09 2.38 3.17-.3-.04-.68-.08-1.13-.13-.64-.07-1.41-.15-2.31-.22-.89-.08-1.89-.16-2.99-.23-1.09-.07-2.28-.15-3.54-.21a213.1 213.1 0 00-3.95-.16c-1.37-.04-2.78-.08-4.22-.1-1.44-.03-2.9-.03-4.36-.04-1.46.01-2.92.01-4.36.04-1.44.02-2.85.06-4.22.1-1.37.04-2.69.1-3.95.16-1.25.06-2.44.14-3.54.21-1.1.06-2.1.15-2.99.23-.89.07-1.67.15-2.3.22-.45.04-.83.09-1.13.13.74-1.09 1.54-2.15 2.38-3.17 3.21-3.9 7.09-7.36 11.24-10.63 2.85-2.24 5.83-4.39 8.86-6.56 3.06 2.17 6.04 4.32 8.89 6.56zm7.25-21.52c-3.98 3.97-8.42 7.37-12.83 10.64-1.1.81-2.19 1.61-3.28 2.4-1.09-.79-2.19-1.59-3.28-2.4a182.87 182.87 0 01-6.58-5.06c-2.16-1.75-4.27-3.6-6.26-5.58-2-1.98-3.85-4.12-5.51-6.41-.2-.29-.4-.57-.6-.86.25.03.54.06.87.09.64.06 1.41.15 2.3.22.89.08 1.89.16 2.99.23 1.1.07 2.28.15 3.54.21 1.25.06 2.58.12 3.95.16 1.37.04 2.79.08 4.22.1 1.44.03 2.9.03 4.36.04 1.46-.01 2.92-.01 4.36-.03 1.44-.02 2.85-.06 4.22-.1 1.37-.04 2.69-.1 3.95-.16 1.25-.06 2.44-.14 3.54-.21 1.1-.07 2.1-.15 2.99-.23.89-.07 1.67-.15 2.31-.22.32-.03.61-.06.86-.09l-.59.86a55.448 55.448 0 01-5.53 6.4zm12.59-27.53a13 13 0 01-.04 1.1c-.05.72-.08 1.44-.17 2.16l-.12 1.09-.17 1.07c-.45 2.87-1.27 5.64-2.38 8.28-.13.33-.28.66-.43.98-.15.32-.3.65-.45.97-.34.63-.64 1.27-1.01 1.88-.47.85-.99 1.66-1.53 2.46-.29-.04-.63-.08-1.03-.11-.64-.06-1.41-.15-2.31-.22-.89-.08-1.89-.16-2.99-.23-1.09-.07-2.28-.15-3.54-.21a213.1 213.1 0 00-3.95-.16c-1.37-.04-2.78-.08-4.22-.1-1.44-.03-2.9-.03-4.36-.03-1.46.01-2.92.01-4.36.04-1.44.02-2.85.06-4.22.1-1.37.04-2.69.1-3.95.16-1.26.06-2.44.14-3.54.21-1.1.06-2.1.15-2.99.23-.89.07-1.67.15-2.3.22-.41.04-.75.08-1.04.11-.54-.8-1.06-1.61-1.52-2.46-.37-.61-.67-1.25-1.01-1.88-.16-.32-.3-.65-.45-.97-.15-.32-.3-.65-.43-.98a35.444 35.444 0 01-2.38-8.28c-.35-2.19-.52-4.4-.53-6.64.41.04.96.09 1.62.14.81.06 1.79.15 2.92.22 1.13.08 2.4.16 3.79.23 1.39.07 2.9.15 4.49.21 1.59.06 3.27.12 5.01.16 1.74.04 3.53.08 5.35.1 1.83.03 3.68.03 5.53.04 1.85-.01 3.71-.01 5.53-.03 1.82-.02 3.62-.06 5.36-.1 1.74-.04 3.41-.1 5.01-.16 1.59-.06 3.1-.14 4.49-.21 1.39-.07 2.66-.15 3.79-.23 1.13-.07 2.11-.15 2.92-.22.66-.05 1.21-.1 1.62-.14v.09l-.01 1.11zm-4.95-20.22c1.52 2.58 2.67 5.35 3.51 8.19.8 2.85 1.26 5.79 1.4 8.72l.03 1.1.02.55v.26c-.41-.04-.96-.09-1.62-.14-.81-.06-1.79-.15-2.92-.22-1.13-.08-2.4-.16-3.79-.23-1.39-.07-2.9-.15-4.49-.21-1.59-.06-3.27-.12-5.01-.16-1.74-.04-3.53-.08-5.36-.1-1.83-.03-3.68-.03-5.53-.04-1.85.01-3.7.01-5.53.04-1.82.02-3.62.06-5.35.1-1.74.04-3.42.1-5.01.16-1.59.06-3.1.14-4.49.21-1.39.06-2.66.15-3.79.23-1.13.07-2.11.15-2.92.22-.66.05-1.21.1-1.62.14 0-.64.01-1.29.04-1.93.09-1.44.21-2.92.46-4.37.21-1.46.56-2.9.95-4.33.84-2.84 1.99-5.61 3.51-8.2.46-.8.97-1.59 1.49-2.36.26.03.57.07.92.1.64.06 1.41.15 2.3.22.89.08 1.89.16 2.99.23 1.1.07 2.28.15 3.54.21 1.25.06 2.58.12 3.95.16 1.37.04 2.79.08 4.22.1 1.44.03 2.9.03 4.36.04 1.46-.01 2.92-.01 4.36-.04 1.44-.02 2.85-.06 4.22-.1 1.37-.04 2.69-.1 3.95-.16 1.25-.06 2.44-.14 3.54-.21 1.1-.06 2.1-.15 2.99-.23.89-.07 1.67-.15 2.31-.22.35-.03.65-.07.91-.1.5.78 1 1.56 1.46 2.37zm-12.02-13.69c3.91 3.31 7.5 6.94 10.33 11.03-.21-.02-.45-.05-.71-.08-.64-.06-1.41-.15-2.31-.22-.89-.08-1.89-.16-2.99-.23-1.09-.07-2.28-.15-3.54-.21a213.1 213.1 0 00-3.95-.16c-1.37-.04-2.78-.08-4.22-.1-1.44-.03-2.9-.03-4.36-.04-1.46.01-2.92.01-4.36.04-1.44.02-2.85.06-4.22.1-1.37.04-2.69.1-3.95.16-1.26.06-2.44.14-3.54.21-1.1.06-2.1.15-2.99.23-.89.07-1.67.15-2.3.22-.26.03-.5.05-.72.08 2.83-4.09 6.43-7.73 10.34-11.03 3.71-3.15 7.7-6.04 11.74-8.96 4.06 2.92 8.05 5.81 11.75 8.96zm8.27-28.89c-.49.63-1.02 1.22-1.54 1.83-.54.59-1.06 1.18-1.63 1.75-4.44 4.59-9.56 8.47-14.69 12.23-.71.52-1.43 1.04-2.15 1.56-.72-.52-1.43-1.04-2.15-1.56-5.14-3.76-10.26-7.64-14.7-12.23-.56-.57-1.09-1.16-1.63-1.75-.52-.61-1.05-1.2-1.54-1.83-.51-.61-.97-1.26-1.45-1.9-.16-.23-.32-.46-.47-.68.17.02.36.04.57.06.64.06 1.41.15 2.3.22.89.08 1.89.16 2.99.23 1.09.07 2.28.15 3.54.21 1.25.06 2.58.12 3.95.16 1.37.04 2.79.08 4.22.1 1.44.03 2.9.03 4.36.04 1.46-.01 2.92-.01 4.36-.04 1.44-.02 2.85-.06 4.22-.1 1.37-.04 2.69-.1 3.95-.16 1.25-.06 2.44-.14 3.54-.21 1.1-.07 2.1-.15 2.99-.23.89-.07 1.67-.15 2.31-.22.21-.02.39-.04.57-.06l-.48.69c-.47.63-.93 1.28-1.44 1.89zm8.52-23.76l-.02.61c-.01.4 0 .81-.03 1.21-.17 3.22-.69 6.4-1.66 9.44l-.17.57-.2.56c-.14.37-.26.75-.41 1.12-.3.74-.6 1.48-.95 2.19-.32.73-.71 1.42-1.08 2.13-.4.69-.79 1.38-1.22 2.05-.2.33-.41.65-.63.97-.23-.03-.5-.06-.8-.09-.64-.06-1.41-.15-2.31-.22-.89-.08-1.89-.16-2.99-.23-1.09-.07-2.28-.15-3.54-.21a213.1 213.1 0 00-3.95-.16c-1.37-.04-2.78-.08-4.22-.1-1.44-.03-2.9-.03-4.36-.04-1.46.01-2.92.01-4.36.04-1.44.02-2.85.06-4.22.1-1.37.04-2.69.1-3.95.16-1.26.06-2.44.14-3.54.21-1.1.06-2.1.15-2.99.23-.89.07-1.67.15-2.3.22-.29.03-.56.06-.79.08-.22-.32-.43-.64-.63-.97-.44-.67-.82-1.36-1.22-2.05-.36-.71-.75-1.4-1.08-2.13-.35-.71-.64-1.46-.95-2.19-.14-.37-.27-.75-.41-1.12l-.2-.56-.17-.57c-.5-1.52-.84-3.08-1.13-4.66l-.19-1.19c-.07-.4-.09-.8-.14-1.2-.1-.8-.14-1.59-.19-2.38-.04-.39-.03-.82-.04-1.23l-.01-.62-.01-.3c.38.04.86.08 1.42.13.81.06 1.8.15 2.92.22 1.13.08 2.4.16 3.79.23 1.39.07 2.9.15 4.49.21 1.59.06 3.27.12 5.01.16 1.74.05 3.53.08 5.35.1 1.83.03 3.68.03 5.53.04 1.85-.01 3.7-.01 5.53-.03 1.82-.02 3.62-.06 5.36-.1 1.74-.04 3.41-.1 5.01-.16 1.59-.06 3.1-.14 4.49-.21 1.39-.07 2.66-.15 3.79-.23 1.13-.07 2.11-.15 2.92-.22.56-.04 1.04-.09 1.43-.13v.01l.02.31zm-3.7-17c.72 1.45 1.31 2.96 1.83 4.49.51 1.53.89 3.1 1.2 4.69l.19 1.19.1.6.07.6.14 1.2.08 1.19.04.6c.01.2.01.41.02.62l.03 1.24v.05c-.39-.04-.86-.08-1.43-.13-.81-.06-1.79-.15-2.92-.22-1.13-.08-2.4-.16-3.79-.23-1.39-.07-2.9-.15-4.49-.21-1.59-.06-3.27-.12-5.01-.16-1.74-.04-3.53-.08-5.36-.1-1.83-.03-3.68-.03-5.53-.04-1.85.01-3.71.01-5.53.04-1.82.02-3.62.06-5.35.1-1.74.04-3.42.1-5.01.16-1.59.06-3.1.14-4.49.21-1.39.06-2.66.15-3.79.23-1.13.07-2.11.15-2.92.22-.56.04-1.04.09-1.42.12v-.08l.03-1.21c.01-.2.01-.4.02-.61l.04-.6.08-1.21.14-1.2.07-.6.09-.6.19-1.19c.31-1.58.7-3.15 1.2-4.69.52-1.53 1.11-3.04 1.83-4.49.72-1.45 1.52-2.86 2.42-4.23.1-.15.21-.3.31-.45.22.03.47.05.74.08.64.06 1.41.15 2.3.22.89.08 1.89.16 2.99.23 1.09.07 2.28.15 3.54.21 1.25.06 2.58.12 3.95.16 1.37.04 2.79.08 4.22.1 1.44.03 2.9.03 4.36.04 1.46-.01 2.92-.01 4.36-.04 1.44-.02 2.85-.06 4.22-.1 1.37-.04 2.69-.1 3.95-.16 1.25-.06 2.44-.14 3.54-.21 1.1-.07 2.1-.15 2.99-.23.89-.07 1.67-.15 2.31-.22.27-.03.52-.05.74-.08.1.15.21.3.31.45.88 1.38 1.68 2.8 2.4 4.25zm-20.15-21.43c5.39 4.01 10.6 8.23 14.81 13.27.84 1.02 1.63 2.06 2.38 3.14-.16-.02-.32-.04-.5-.05-.64-.06-1.41-.15-2.31-.22-.89-.08-1.89-.16-2.99-.23-1.09-.08-2.28-.15-3.54-.21a213.1 213.1 0 00-3.95-.16c-1.37-.04-2.78-.08-4.22-.1-1.44-.03-2.9-.03-4.36-.04-1.46.01-2.92.01-4.36.04-1.44.02-2.85.06-4.22.1-1.37.04-2.69.1-3.95.16-1.25.06-2.44.14-3.54.21-1.1.06-2.1.15-2.99.23-.89.07-1.67.15-2.3.22-.18.02-.35.03-.51.05.75-1.08 1.55-2.12 2.38-3.14 4.21-5.05 9.42-9.27 14.81-13.27 1.54-1.15 3.1-2.28 4.67-3.41 1.58 1.13 3.14 2.26 4.69 3.41zm9.31-17.27c-1.23 1.13-2.5 2.23-3.8 3.29-3.28 2.69-6.73 5.2-10.19 7.71-3.46-2.51-6.91-5.01-10.19-7.71-1.3-1.07-2.56-2.16-3.8-3.29a65.663 65.663 0 01-3.55-3.53 47.65 47.65 0 01-4.26-5.27c.14.02.29.03.45.05.64.06 1.41.15 2.3.22.89.07 1.9.16 2.99.23 1.09.07 2.28.15 3.54.21 1.25.06 2.58.12 3.95.16 1.37.04 2.78.08 4.22.1 1.44.03 2.9.03 4.36.04 1.46-.01 2.92-.01 4.36-.04 1.44-.02 2.85-.06 4.22-.1 1.37-.04 2.69-.1 3.95-.16 1.25-.06 2.44-.14 3.54-.21 1.1-.06 2.1-.15 2.99-.23.89-.07 1.67-.16 2.31-.22.16-.02.3-.03.44-.04-1.28 1.85-2.72 3.6-4.26 5.26-1.15 1.22-2.33 2.4-3.57 3.53zm14.44-28.52c-.01.21-.02.41-.04.61l-.08 1.22-.13 1.23-.07.62-.1.61c-.07.41-.13.82-.2 1.22-.17.81-.32 1.62-.54 2.41-.19.8-.45 1.59-.69 2.37-.28.78-.54 1.56-.87 2.31-.3.77-.67 1.51-1.01 2.26-.38.73-.76 1.47-1.18 2.18-.46.79-.95 1.56-1.46 2.32-.21-.02-.43-.05-.69-.07-.64-.06-1.41-.15-2.31-.22-.89-.08-1.89-.16-2.99-.23-1.09-.07-2.28-.15-3.54-.21a213.1 213.1 0 00-3.95-.16c-1.37-.04-2.78-.08-4.22-.1-1.44-.03-2.9-.03-4.36-.04-1.46.01-2.92.01-4.36.04-1.44.02-2.85.06-4.22.1-1.37.04-2.69.1-3.95.16-1.25.06-2.44.14-3.54.21-1.09.07-2.1.15-2.99.23-.89.07-1.67.15-2.3.22-.26.02-.48.05-.69.07-.51-.76-1-1.53-1.46-2.32-.43-.71-.8-1.45-1.18-2.18-.35-.75-.71-1.49-1.01-2.25-.33-.76-.59-1.54-.87-2.31-.24-.79-.5-1.57-.69-2.37-.22-.8-.37-1.61-.54-2.42l-.2-1.22-.1-.61-.07-.62-.14-1.23-.08-1.24c-.01-.21-.03-.41-.04-.62l-.02-.62-.02-1.12c.37.04.83.08 1.36.12.81.06 1.8.15 2.93.22 1.13.07 2.4.16 3.79.23 1.39.07 2.9.15 4.49.21 1.59.06 3.27.12 5.01.16 1.74.04 3.53.08 5.35.1 1.83.03 3.68.03 5.53.04 1.85-.01 3.7-.01 5.53-.04 1.82-.02 3.62-.06 5.36-.1 1.74-.04 3.41-.1 5.01-.16 1.59-.06 3.1-.14 4.49-.21 1.39-.07 2.66-.15 3.79-.23 1.13-.07 2.11-.15 2.92-.22.53-.04.99-.08 1.36-.12l-.02 1.12v.65zm-4.91-20.84c.43.71.8 1.44 1.18 2.17.35.75.71 1.49 1.01 2.26.33.76.59 1.54.87 2.32.24.79.5 1.57.69 2.38.22.79.37 1.61.54 2.41l.2 1.22.1.61.07.62.13 1.23.08 1.24c.01.21.03.41.04.62l.01.62.02 1.14c-.37-.04-.83-.08-1.36-.12-.81-.06-1.79-.15-2.92-.22-1.13-.08-2.4-.16-3.79-.23-1.39-.07-2.9-.15-4.49-.21-1.59-.06-3.27-.12-5.01-.16-1.74-.04-3.53-.08-5.36-.1-1.83-.02-3.68-.03-5.53-.03-1.85.01-3.71.01-5.53.04-1.82.02-3.62.05-5.35.1-1.74.04-3.42.1-5.01.16-1.59.06-3.1.14-4.49.21-1.39.06-2.66.15-3.79.23-1.13.07-2.12.15-2.93.22-.53.04-.99.08-1.36.12l.02-1.14.01-.64c.01-.21.03-.41.04-.61l.08-1.22.14-1.23.07-.62.1-.61c.07-.41.12-.81.2-1.22.17-.81.32-1.62.54-2.42.19-.8.45-1.59.69-2.37.28-.77.54-1.56.87-2.31.3-.77.67-1.51 1.02-2.26.38-.73.75-1.47 1.18-2.18.45-.79.94-1.55 1.45-2.3.21.02.44.05.7.07.64.06 1.41.15 2.3.22.89.08 1.9.16 2.99.23 1.09.08 2.28.16 3.54.21 1.25.06 2.58.12 3.95.16 1.37.04 2.78.08 4.22.1 1.44.03 2.9.03 4.36.04 1.46-.01 2.92-.01 4.36-.03 1.44-.02 2.85-.06 4.22-.1 1.37-.04 2.69-.1 3.95-.16 1.25-.06 2.44-.14 3.54-.21 1.1-.06 2.1-.15 2.99-.23.89-.07 1.66-.15 2.3-.22.26-.02.49-.05.71-.07.5.72.99 1.49 1.44 2.27zm-13.32-14.75c1.3 1.07 2.56 2.16 3.8 3.29 1.23 1.13 2.41 2.31 3.55 3.52 1.55 1.67 2.99 3.43 4.28 5.29-.15-.01-.3-.03-.47-.05-.64-.06-1.41-.15-2.3-.22-.89-.08-1.89-.16-2.99-.23-1.09-.07-2.28-.15-3.54-.21-1.25-.06-2.58-.12-3.95-.16-1.37-.04-2.78-.08-4.22-.1-1.44-.03-2.9-.03-4.36-.04-1.46.01-2.92.01-4.36.04-1.44.02-2.85.06-4.22.1-1.37.04-2.69.1-3.95.16-1.25.06-2.44.14-3.54.21-1.09.06-2.1.15-2.99.23-.89.07-1.67.15-2.3.22-.16.02-.32.03-.46.05 1.29-1.86 2.73-3.62 4.27-5.29 1.14-1.22 2.32-2.39 3.55-3.53 1.23-1.13 2.5-2.23 3.8-3.29 3.28-2.69 6.73-5.2 10.19-7.71 3.48 2.51 6.93 5.02 10.21 7.72zm9.29-27.25c-4.21 5.05-9.43 9.26-14.81 13.27-1.54 1.15-3.1 2.28-4.67 3.41-1.57-1.13-3.13-2.26-4.67-3.41-5.39-4.01-10.6-8.23-14.81-13.27-.83-1.01-1.62-2.04-2.36-3.11.15.02.31.04.49.05.64.06 1.42.15 2.31.22.89.08 1.89.16 2.99.23 1.09.07 2.28.15 3.54.21 1.25.06 2.58.12 3.95.16 1.37.04 2.78.08 4.22.1 1.44.03 2.9.03 4.36.04 1.46-.01 2.92-.01 4.36-.04 1.44-.02 2.85-.06 4.22-.1 1.37-.04 2.69-.1 3.95-.16 1.25-.06 2.44-.14 3.54-.21 1.1-.06 2.1-.15 2.99-.23.89-.07 1.66-.15 2.3-.22.17-.02.34-.03.49-.05-.77 1.06-1.56 2.1-2.39 3.11zm9.01-23.34c-.01.2-.01.4-.02.6l-.04.61-.08 1.21-.14 1.2-.07.6-.1.6-.19 1.2c-.31 1.58-.7 3.15-1.2 4.69-.52 1.53-1.11 3.03-1.83 4.49-.72 1.45-1.52 2.86-2.42 4.23-.11.16-.22.31-.32.47-.22-.03-.46-.05-.73-.08-.64-.06-1.41-.15-2.3-.22-.89-.08-1.89-.16-2.99-.23-1.09-.07-2.28-.15-3.54-.21-1.25-.06-2.58-.11-3.95-.16-1.37-.04-2.78-.08-4.22-.1-1.44-.03-2.9-.03-4.36-.04-1.46.01-2.92.01-4.36.04-1.44.02-2.85.05-4.22.1-1.37.04-2.69.1-3.95.16-1.25.06-2.44.14-3.54.21-1.09.06-2.1.15-2.99.23-.89.07-1.67.15-2.31.21-.27.03-.51.05-.72.08-.11-.16-.22-.31-.33-.47-.9-1.36-1.7-2.77-2.42-4.22-.72-1.45-1.31-2.96-1.83-4.49-.5-1.54-.89-3.11-1.2-4.69l-.19-1.2-.09-.6-.07-.6-.14-1.2-.08-1.19-.04-.6c-.01-.2-.01-.41-.02-.62l-.03-1.24v-.04c.38.04.86.08 1.43.13.81.06 1.8.15 2.93.22 1.13.08 2.4.16 3.79.23 1.39.07 2.9.15 4.49.21 1.59.06 3.27.12 5.01.16 1.74.04 3.53.08 5.36.1 1.82.02 3.68.03 5.53.04 1.85-.01 3.71-.01 5.53-.04 1.82-.02 3.62-.06 5.36-.1 1.74-.04 3.42-.1 5.01-.16 1.59-.06 3.1-.14 4.49-.21 1.39-.06 2.66-.15 3.79-.23 1.13-.07 2.11-.16 2.92-.22.56-.04 1.04-.09 1.42-.12v.05l-.03 1.21zm-4.49-19.65c.37.71.76 1.4 1.08 2.13.35.71.64 1.45.94 2.19.15.37.27.75.41 1.12l.2.56.18.57c.5 1.52.84 3.08 1.13 4.66l.19 1.19c.07.39.09.8.14 1.2.11.8.14 1.59.19 2.38.03.39.03.82.04 1.23l.01.62.01.31c-.39-.03-.86-.08-1.42-.12-.81-.07-1.79-.15-2.92-.22-1.13-.08-2.4-.16-3.79-.23-1.39-.08-2.9-.15-4.49-.21-1.59-.06-3.27-.11-5.01-.16-1.74-.04-3.53-.08-5.36-.1-1.82-.03-3.68-.03-5.53-.04-1.85.01-3.71.01-5.53.04-1.83.02-3.62.06-5.36.1-1.74.04-3.42.1-5.01.16-1.59.06-3.1.14-4.49.21-1.39.07-2.66.15-3.79.23-1.13.07-2.12.16-2.93.22-.56.04-1.04.09-1.43.12v-.03l.01-.3.01-.61c.01-.4 0-.81.04-1.21.17-3.21.69-6.4 1.65-9.44l.18-.57.2-.56c.14-.37.26-.75.41-1.12.3-.74.6-1.48.95-2.19.32-.73.71-1.42 1.08-2.13.4-.69.79-1.39 1.22-2.05.2-.32.4-.64.62-.95.24.03.51.06.81.09.64.07 1.42.15 2.31.22.89.07 1.89.16 2.99.23 1.09.07 2.28.15 3.54.21 1.25.06 2.58.12 3.95.16 1.37.04 2.78.08 4.22.1 1.44.03 2.9.03 4.36.04 1.46 0 2.92-.01 4.36-.04 1.44-.02 2.85-.05 4.22-.1 1.37-.04 2.69-.1 3.95-.16 1.25-.06 2.44-.14 3.54-.21 1.1-.06 2.1-.15 2.99-.23.89-.07 1.66-.15 2.3-.22.3-.03.57-.06.8-.09.21.31.42.63.62.95.42.66.81 1.36 1.21 2.05zm-21.86-21.74c5.14 3.76 10.26 7.64 14.69 12.23.56.57 1.09 1.16 1.63 1.75.52.61 1.05 1.2 1.54 1.83.51.62.97 1.26 1.45 1.9.16.24.33.47.49.71-.18-.02-.37-.04-.58-.06-.64-.06-1.41-.15-2.3-.22-.89-.08-1.89-.16-2.99-.23-1.09-.08-2.28-.15-3.54-.21-1.25-.06-2.58-.12-3.95-.16-1.37-.04-2.78-.08-4.22-.1-1.44-.03-2.9-.03-4.36-.04-1.46 0-2.92.01-4.36.04-1.44.02-2.85.06-4.22.1-1.37.04-2.69.1-3.95.16-1.25.06-2.44.14-3.54.21-1.09.06-2.1.15-2.99.22-.89.07-1.67.15-2.31.22-.21.02-.41.04-.59.06.17-.24.33-.47.49-.71.48-.64.94-1.28 1.45-1.9.49-.63 1.02-1.22 1.54-1.83.54-.59 1.07-1.18 1.63-1.75 4.44-4.59 9.56-8.47 14.7-12.23.71-.52 1.43-1.04 2.14-1.56.72.53 1.44 1.05 2.15 1.57zm9.59-13.08c-3.71 3.15-7.7 6.04-11.74 8.95-4.04-2.91-8.03-5.81-11.74-8.95-3.9-3.3-7.49-6.93-10.32-11.01.21.03.44.05.7.07.64.06 1.41.15 2.3.22.89.08 1.89.16 2.99.23 1.09.07 2.28.15 3.54.21 1.25.06 2.58.12 3.95.16 1.37.04 2.78.08 4.22.1 1.44.03 2.9.03 4.36.04 1.46 0 2.92-.01 4.36-.04 1.44-.02 2.85-.05 4.22-.1 1.37-.04 2.69-.1 3.95-.16 1.26-.06 2.44-.14 3.54-.21 1.09-.06 2.1-.15 2.99-.23.89-.07 1.66-.16 2.3-.22.26-.03.49-.05.7-.08-2.83 4.1-6.42 7.72-10.32 11.02zm16.49-26.21c-.21 1.46-.57 2.9-.95 4.33-.84 2.84-1.99 5.61-3.51 8.2-.47.81-.98 1.6-1.5 2.38-.26-.03-.56-.07-.9-.1-.64-.07-1.41-.15-2.3-.22-.89-.08-1.89-.16-2.99-.23-1.1-.08-2.28-.15-3.54-.21-1.25-.06-2.58-.12-3.95-.16-1.37-.04-2.78-.08-4.22-.1-1.44-.03-2.9-.03-4.36-.03-1.46 0-2.92.01-4.36.03-1.44.02-2.85.06-4.22.1-1.37.04-2.69.1-3.95.16-1.25.06-2.44.14-3.54.21-1.09.06-2.1.15-2.99.23-.89.07-1.67.15-2.3.22-.34.03-.64.06-.9.1-.53-.78-1.03-1.57-1.5-2.38-1.52-2.59-2.67-5.35-3.51-8.2-.8-2.85-1.25-5.78-1.4-8.72l-.03-1.1-.01-.55-.01-.24c.41.04.96.09 1.62.14.81.06 1.8.15 2.93.21 1.13.08 2.4.17 3.79.23 1.39.07 2.9.15 4.49.21 1.59.06 3.27.12 5.01.16 1.74.04 3.53.08 5.36.1 1.82.03 3.68.03 5.53.04 1.85-.01 3.71-.01 5.53-.03 1.82-.02 3.62-.06 5.36-.1 1.74-.04 3.42-.1 5.01-.16 1.59-.06 3.1-.14 4.49-.21 1.39-.07 2.66-.15 3.79-.23 1.13-.07 2.11-.16 2.92-.22.66-.05 1.2-.1 1.62-.14 0 .63-.02 1.27-.05 1.91-.1 1.44-.22 2.91-.46 4.37zm-4.3-25.24c.37.61.67 1.25 1.01 1.88.16.32.3.64.45.97.15.32.3.64.43.98 1.11 2.63 1.93 5.41 2.38 8.28.35 2.19.52 4.41.52 6.67-.41-.04-.96-.09-1.62-.15-.81-.06-1.79-.15-2.92-.22-1.13-.08-2.4-.16-3.79-.23-1.39-.08-2.9-.15-4.49-.21-1.59-.06-3.27-.12-5.01-.16-1.74-.04-3.53-.08-5.36-.1-1.82-.02-3.68-.03-5.53-.04-1.85.01-3.71.01-5.53.04-1.83.02-3.62.05-5.36.1-1.74.04-3.42.1-5.01.16-1.59.06-3.1.14-4.49.21-1.39.06-2.66.15-3.79.23-1.13.07-2.12.15-2.93.22-.66.05-1.21.1-1.62.14v-.11l.02-1.12c.01-.38.01-.75.04-1.1.05-.72.08-1.44.17-2.17l.12-1.08.17-1.08c.45-2.86 1.27-5.64 2.38-8.28.13-.33.28-.65.43-.98.15-.32.3-.65.45-.97.34-.63.64-1.27 1.01-1.88.46-.84.98-1.65 1.51-2.44.29.04.64.08 1.05.12.64.06 1.41.15 2.3.22.89.08 1.89.16 2.99.23 1.09.08 2.28.15 3.54.21 1.25.06 2.58.12 3.95.16 1.37.05 2.78.08 4.22.1 1.44.03 2.9.03 4.36.04 1.46-.01 2.92-.01 4.36-.04 1.44-.02 2.85-.06 4.22-.1 1.37-.04 2.69-.1 3.95-.16 1.26-.06 2.44-.14 3.54-.21 1.09-.07 2.1-.15 2.99-.23.89-.07 1.66-.15 2.3-.22.41-.04.76-.08 1.05-.12.56.79 1.08 1.6 1.54 2.44zm-20.64-20.64c2.21 1.63 4.42 3.31 6.58 5.06 2.16 1.75 4.26 3.6 6.25 5.58 2 1.97 3.85 4.12 5.51 6.41l.61.88c-.26-.03-.55-.06-.88-.09-.64-.07-1.41-.15-2.3-.22-.89-.08-1.89-.16-2.99-.23-1.1-.08-2.28-.16-3.54-.21-1.25-.06-2.58-.12-3.95-.16-1.37-.04-2.78-.08-4.22-.1-1.44-.03-2.9-.03-4.36-.04-1.46.01-2.92.01-4.36.04-1.44.02-2.85.05-4.22.1-1.37.04-2.69.1-3.95.16-1.25.06-2.44.14-3.54.21-1.09.06-2.1.15-2.99.22-.89.07-1.67.16-2.3.22-.33.03-.62.06-.88.1.2-.3.4-.59.61-.88a51.99 51.99 0 015.51-6.41c3.98-3.97 8.42-7.37 12.83-10.64 1.1-.81 2.19-1.61 3.28-2.41 1.11.81 2.21 1.61 3.3 2.41zm5.58-10.87c-2.85 2.24-5.83 4.39-8.86 6.56-3.03-2.18-6.01-4.33-8.86-6.56-4.16-3.26-8.04-6.72-11.24-10.63-.84-1.02-1.63-2.08-2.37-3.15.3.04.68.08 1.12.12.64.07 1.41.15 2.3.22.89.08 1.89.16 2.99.23 1.09.07 2.28.15 3.54.21 1.25.06 2.58.12 3.95.16 1.37.04 2.78.08 4.22.1 1.44.02 2.9.03 4.36.04 1.46-.01 2.92-.01 4.36-.04 1.44-.02 2.85-.06 4.22-.1 1.37-.04 2.69-.1 3.95-.16 1.26-.06 2.44-.14 3.54-.21 1.09-.07 2.1-.15 2.99-.23.89-.07 1.66-.15 2.3-.22.44-.04.81-.09 1.11-.12-.74 1.08-1.53 2.13-2.37 3.15-3.21 3.9-7.1 7.36-11.25 10.63zm20.17-33.91c0 .58-.06 1.16-.1 1.75-.03.58-.1 1.16-.17 1.75-.28 2.34-.77 4.67-1.51 6.96a36.06 36.06 0 01-2.91 6.67c-.53.95-1.11 1.87-1.73 2.78-.32-.04-.74-.09-1.25-.14-.64-.07-1.41-.15-2.3-.22-.89-.08-1.89-.16-2.99-.23-1.1-.08-2.28-.15-3.54-.21-1.25-.06-2.58-.12-3.95-.16-1.37-.04-2.78-.08-4.22-.1-1.44-.03-2.9-.03-4.36-.04-1.46.01-2.92.01-4.36.04-1.44.02-2.85.06-4.22.1-1.37.04-2.69.1-3.95.16-1.25.06-2.44.14-3.54.21-1.1.06-2.1.15-2.99.23-.89.07-1.67.16-2.3.22-.51.05-.93.1-1.26.14-.62-.91-1.19-1.83-1.73-2.78a35.402 35.402 0 01-2.91-6.67c-.73-2.29-1.23-4.63-1.51-6.96-.19-1.61-.29-3.23-.3-4.84.03 0 .05 0 .08.01.43.04 1.07.11 1.88.17.81.06 1.79.15 2.92.22s2.4.16 3.79.23c1.39.07 2.89.15 4.49.21 1.59.06 3.27.12 5.01.16 1.74.04 3.53.08 5.36.1 1.82.03 3.68.03 5.53.04 1.85 0 3.71-.01 5.53-.04 1.82-.02 3.62-.05 5.36-.1 1.74-.04 3.42-.1 5.01-.16 1.59-.06 3.1-.14 4.49-.21 1.39-.06 2.66-.15 3.79-.23 1.13-.07 2.11-.15 2.92-.22.81-.06 1.45-.13 1.88-.17.03 0 .05 0 .08-.01 0 .44-.02.9-.02 1.34zm-2.85-16.51c1.69 4.01 2.66 8.46 2.84 13.03.02.58.02 1.17.04 1.75v.27c-.03 0-.05 0-.08-.01-.43-.04-1.07-.11-1.88-.17-.81-.06-1.79-.15-2.92-.22-1.13-.08-2.4-.16-3.79-.23-1.39-.08-2.9-.15-4.49-.21-1.59-.06-3.27-.12-5.01-.16-1.74-.04-3.53-.08-5.36-.1-1.82-.03-3.68-.03-5.53-.04-1.85 0-3.71.01-5.53.04-1.82.02-3.62.06-5.36.1-1.74.05-3.42.1-5.01.16-1.59.06-3.1.14-4.49.21-1.39.07-2.66.15-3.79.23-1.13.07-2.11.15-2.92.22-.81.06-1.45.13-1.88.17-.03 0-.05 0-.08.01 0-.67 0-1.34.03-2.01.19-4.6 1.15-9.03 2.84-13.05.93-2.22 2.07-4.29 3.35-6.24.34.04.85.11 1.48.17.64.06 1.41.15 2.3.22.89.07 1.89.16 2.99.23 1.09.07 2.28.15 3.54.21 1.25.06 2.58.12 3.95.16 1.37.04 2.78.08 4.22.1 1.44.02 2.9.03 4.36.04 1.46-.01 2.92-.01 4.36-.04 1.44-.02 2.85-.06 4.22-.1 1.37-.05 2.69-.1 3.95-.16 1.26-.06 2.44-.14 3.54-.21 1.09-.07 2.1-.15 2.99-.23.89-.07 1.66-.15 2.3-.22.63-.06 1.13-.13 1.48-.17 1.27 1.95 2.42 4.03 3.34 6.25zm-24.19-25.88c2.9 2.13 5.89 4.36 8.87 6.83 2.97 2.47 5.92 5.19 8.6 8.32 1.16 1.36 2.26 2.81 3.27 4.33-.34-.04-.8-.1-1.38-.16-.64-.06-1.41-.15-2.3-.22-.89-.08-1.89-.16-2.99-.23-1.1-.07-2.28-.15-3.54-.21-1.25-.06-2.58-.12-3.95-.16-1.37-.04-2.78-.08-4.22-.1-1.44-.03-2.9-.03-4.36-.04-1.46 0-2.92.01-4.36.04-1.44.02-2.85.05-4.22.1-1.37.04-2.69.1-3.95.16-1.25.06-2.44.14-3.54.21-1.1.06-2.1.15-2.99.23-.89.07-1.67.15-2.3.22-.59.05-1.05.11-1.39.15 1.02-1.53 2.12-2.98 3.28-4.34 2.68-3.13 5.62-5.86 8.6-8.33 2.98-2.47 5.97-4.7 8.87-6.83.67-.49 1.34-.98 2-1.46.67.51 1.33 1 2 1.49zm11.34-12.45c-2.25 1.95-4.71 3.89-7.35 5.85-1.91 1.42-3.91 2.85-5.98 4.33-2.07-1.48-4.07-2.91-5.98-4.33-2.64-1.96-5.11-3.9-7.35-5.85-2.23-1.96-4.26-3.92-6.01-5.91a48.338 48.338 0 01-3.8-4.88c.08.01.19.02.32.04.34.04.84.11 1.48.17.64.06 1.41.15 2.3.22.89.08 1.89.16 2.99.23 1.1.07 2.28.15 3.54.21 1.25.06 2.58.12 3.95.16 1.37.04 2.78.08 4.22.1 1.44.03 2.9.03 4.36.04 1.46 0 2.92-.01 4.36-.03 1.44-.02 2.85-.06 4.22-.1 1.37-.04 2.69-.1 3.95-.16 1.25-.06 2.44-.14 3.54-.21 1.1-.06 2.1-.15 2.99-.22.89-.07 1.66-.15 2.3-.22.64-.06 1.14-.13 1.48-.17.13-.02.23-.03.31-.04a48.42 48.42 0 01-3.8 4.89c-1.77 1.96-3.8 3.92-6.04 5.88z" opacity=".5"/>
    <linearGradient id="I" x1="120.115" x2="120.115" y1="-1" y2="279.003" gradientTransform="rotate(180 212.6 141.73)" gradientUnits="userSpaceOnUse">
      <stop offset="0" stop-color="#009eff"/>
      <stop offset=".5" stop-color="#ff1e64"/>
      <stop offset="1" stop-color="#009eff"/>
    </linearGradient>
    <path fill="url(#I)" d="M390.23 90.25a4.453 4.453 0 01-4.98 3.84 4.44 4.44 0 01-3.59-2.86l-18.75 5.95c.25.88.33 1.83.21 2.8-.33 2.5-1.94 4.5-4.08 5.46l4.34 10.48a4.23 4.23 0 012.04-.22 4.42 4.42 0 013.81 4.94 4.4 4.4 0 01-4.94 3.8 4.388 4.388 0 01-3.8-4.93c.2-1.55 1.17-2.79 2.49-3.41l-4.34-10.49c-1.02.38-2.14.52-3.29.38a6.843 6.843 0 01-4.36-2.36l-43.94 36.55a8.907 8.907 0 011.87 6.7 9.2 9.2 0 01-.47 1.91l23.45 9.19a4.58 4.58 0 014.77-2.66c1.11.14 2.07.66 2.76 1.42l6.85-6.06c-.52-.62-.78-1.45-.67-2.31a3.045 3.045 0 013.4-2.62 3.04 3.04 0 012.62 3.4 3.03 3.03 0 01-3.4 2.61c-.72-.1-1.34-.43-1.81-.91l-6.84 6.07c.8.94 1.22 2.2 1.05 3.52a4.588 4.588 0 01-4.3 3.99l.13 4.5c.08 0 .15-.02.24 0 1.23.16 2.08 1.28 1.93 2.5a2.223 2.223 0 01-2.5 1.92 2.23 2.23 0 01-1.93-2.49 2.235 2.235 0 012.04-1.94l-.13-4.48c-.2 0-.4-.01-.6-.03a4.58 4.58 0 01-3.76-6l-23.45-9.19a8.956 8.956 0 01-6.23 5.22l-.43.1c-.87.15-1.78.18-2.7.06-2.13-.28-3.97-1.3-5.34-2.76l-34.1 28.36a6.917 6.917 0 011.06 6.4l12.02 4.47a5.3 5.3 0 015.54-3.19c1.37.18 2.54.87 3.36 1.85l9.18-7.38c-.41-.55-.62-1.25-.52-1.99.19-1.49 1.57-2.56 3.08-2.37 1.5.2 2.57 1.57 2.37 3.07-.2 1.5-1.57 2.57-3.08 2.38-.69-.1-1.29-.44-1.72-.93l-9.17 7.37a5.274 5.274 0 011.05 3.9c-.11.82-.4 1.57-.83 2.21L299.31 208c.43-.55 1.13-.88 1.88-.78 1.12.15 1.91 1.17 1.77 2.3a2.04 2.04 0 01-2.29 1.76 2.049 2.049 0 01-1.77-2.29c.03-.29.14-.56.29-.8l-17.49-12.02a5.319 5.319 0 01-4.97 2.16 5.286 5.286 0 01-4.35-6.86L260.37 187a6.852 6.852 0 01-2.29 2.96l44.95 66.46a7.913 7.913 0 015.08-1.08c1.23.16 2.36.6 3.33 1.25l19.83-29.02a4.414 4.414 0 01-1.7-4.06 4.374 4.374 0 014.91-3.78c2.4.31 4.1 2.51 3.78 4.91a4.382 4.382 0 01-4.91 3.78c-.63-.08-1.21-.29-1.73-.62l-19.83 29.03c2.21 1.65 3.5 4.4 3.12 7.34a7.937 7.937 0 01-1 2.95l9.41 5.91a5.788 5.788 0 015.51-2.48c1.35.17 2.52.81 3.4 1.71l6.92-6.48c-.34-.4-.52-.94-.45-1.5a1.958 1.958 0 012.19-1.69c1.07.14 1.82 1.12 1.68 2.2a1.972 1.972 0 01-2.19 1.69c-.43-.06-.8-.26-1.09-.53l-6.92 6.48a5.726 5.726 0 011.44 4.6 5.757 5.757 0 01-1.94 3.61l9.92 11.86c.41-.31.93-.46 1.48-.39a2.05 2.05 0 011.76 2.28c-.14 1.12-1.16 1.89-2.28 1.75a2.017 2.017 0 01-1.75-2.28c.06-.49.3-.9.63-1.22l-9.92-11.87a5.777 5.777 0 01-4.36 1.23c-3.16-.42-5.4-3.31-4.99-6.47.1-.78.36-1.5.72-2.14l-9.41-5.91c-1.53 2.31-4.22 3.73-7.13 3.52l-5.17 39.9c1.63.32 3.06 1.17 4.08 2.34l3.47-2.95a2.1 2.1 0 01-.43-1.56c.16-1.17 1.22-1.99 2.38-1.83 1.16.15 1.99 1.21 1.84 2.38-.15 1.17-1.22 1.98-2.38 1.85-.51-.07-.94-.32-1.27-.66l-3.48 2.96a7.309 7.309 0 011.63 5.25l41 5.39a4.876 4.876 0 015.42-3.98c.83.11 1.6.43 2.23.89l6.37-8.36a2.07 2.07 0 01-.74-1.89 2.12 2.12 0 012.38-1.83c1.16.16 1.98 1.22 1.84 2.38-.16 1.17-1.22 2-2.38 1.84a2 2 0 01-.92-.36l-6.37 8.37a4.858 4.858 0 011.8 4.42 4.867 4.867 0 01-5.46 4.2c-2.6-.33-4.44-2.66-4.22-5.25l-40.98-5.39a7.24 7.24 0 01-2.22 4.25l19.23 22.81c.96-.74 2.2-1.11 3.5-.94a4.739 4.739 0 013.65 6.78l21.54 11.12c.39-.66 1.15-1.07 1.96-.96 1.09.14 1.85 1.14 1.71 2.23a1.981 1.981 0 01-2.22 1.71 1.992 1.992 0 01-1.72-2.23c.02-.2.08-.38.17-.55l-21.55-11.12a4.728 4.728 0 01-4.77 2.43 4.734 4.734 0 01-4.09-5.31c.14-1.15.69-2.14 1.48-2.88l-19.22-22.8a7.186 7.186 0 01-5.58 1.61c-1.69-.22-3.17-1-4.27-2.14l-30.24 27.64c1 1.16 1.62 2.65 1.69 4.27l13.64-.17c.01-.11.01-.23.03-.34a3.975 3.975 0 014.47-3.44 3.99 3.99 0 013.45 4.47 3.995 3.995 0 01-4.47 3.45 3.986 3.986 0 01-3.47-3.69l-13.64.17c0 .25-.02.51-.05.77-.18 1.4-.77 2.66-1.63 3.66l26.06 23.77a6.038 6.038 0 018.26-.38l6.56-7.17a4.085 4.085 0 01-1.15-3.41c.3-2.27 2.37-3.87 4.63-3.58 2.27.3 3.87 2.37 3.57 4.64-.29 2.26-2.37 3.85-4.63 3.57-.8-.1-1.51-.43-2.09-.91l-6.57 7.17a6.052 6.052 0 011.77 5.1c-.06.43-.16.83-.29 1.22l28.5 11.09a3.73 3.73 0 013.84-2.12c1.01.13 1.87.66 2.45 1.41l9.18-7.51c-.32-.44-.48-1-.41-1.58a2.2 2.2 0 012.45-1.89c1.2.16 2.04 1.25 1.88 2.45a2.178 2.178 0 01-2.45 1.88c-.53-.07-.99-.34-1.33-.7l-9.2 7.53c.5.72.74 1.63.63 2.56a3.706 3.706 0 01-4.15 3.2 3.696 3.696 0 01-3.19-4.15c.03-.22.07-.45.15-.66l-28.51-11.1a6.076 6.076 0 01-4.02 3.46l4.86 21.52a5.149 5.149 0 016.03 5.73c-.07.53-.22 1.04-.43 1.5l21.18 10.93a3.317 3.317 0 013.26-1.58c1.82.23 3.11 1.91 2.87 3.72a3.316 3.316 0 01-3.72 2.87c-1.82-.23-3.1-1.9-2.87-3.71.04-.32.13-.62.25-.9l-21.18-10.94a5.17 5.17 0 01-5.14 2.56c-1.63-.21-2.98-1.18-3.77-2.48l-17.82 9.59c.25.53.36 1.16.28 1.79a3.34 3.34 0 01-1.56 2.41l18.84 35.84c.85-.41 1.85-.59 2.87-.45 2.82.37 4.81 2.95 4.44 5.77a5.149 5.149 0 01-5.77 4.45 5.162 5.162 0 01-4.45-5.77 5.192 5.192 0 012.52-3.79l-18.85-35.84c-.54.23-1.15.34-1.77.25a3.338 3.338 0 01-2.88-3.73 3.35 3.35 0 013.74-2.88c1.03.14 1.89.72 2.4 1.54l17.82-9.58c-.42-.88-.61-1.87-.47-2.91a5.15 5.15 0 013.76-4.31l-4.87-21.52c-.6.12-1.24.15-1.9.06a6.07 6.07 0 01-4.94-4l-19.17 5.98c.14.52.18 1.09.11 1.65a4.382 4.382 0 01-4.91 3.78c-2.4-.3-4.1-2.5-3.78-4.9a4.39 4.39 0 014.91-3.79c1.67.22 3 1.35 3.55 2.83l19.17-5.98c-.21-.75-.27-1.56-.16-2.38.16-1.21.66-2.28 1.39-3.14l-26.06-23.77a7.03 7.03 0 01-5.94 2.08c-.1-.01-.2-.04-.29-.06l-.66 3.44c1.04.25 1.75 1.25 1.61 2.33a2.12 2.12 0 01-2.38 1.83 2.121 2.121 0 01-1.84-2.38 2.134 2.134 0 012.38-1.84c.01 0 .01.01.02.01l.65-3.42a7.057 7.057 0 01-3.85-2.23l-15.75 13.06c.57.78.86 1.77.72 2.81a3.872 3.872 0 01-4.35 3.35 3.883 3.883 0 01-3.35-4.35 3.872 3.872 0 014.35-3.35c.94.12 1.75.57 2.34 1.2l15.76-13.05a6.996 6.996 0 01-1.43-5.21c.21-1.57.92-2.95 1.95-4.01l-10.12-10.55c-.73.62-1.72.94-2.75.81a3.563 3.563 0 01-3.07-3.98c.26-1.94 2.04-3.32 3.98-3.07 1.95.25 3.32 2.04 3.06 3.98-.1.76-.43 1.42-.91 1.95l10.12 10.55a6.942 6.942 0 015.59-1.75c1.64.21 3.06.97 4.13 2.06l30.25-27.63c-1.31-1.52-2-3.55-1.72-5.68.13-1.04.48-1.98.98-2.82l-10.62-6.56a5.002 5.002 0 01-4.79 2.16 4.996 4.996 0 01-4.32-5.61 5.007 5.007 0 015.62-4.33c2.74.36 4.69 2.87 4.33 5.62-.08.65-.29 1.26-.6 1.81l10.63 6.56c1.5-2.17 4.13-3.46 6.92-3.1.01.01.02.01.02 0l5.17-39.86c-.01.01-.01.01-.02 0a7.865 7.865 0 01-6.27-4.81l-36.77 13.76c.22.67.3 1.4.2 2.14a4.91 4.91 0 01-5.5 4.23 4.91 4.91 0 01-4.24-5.5c.12-.91.48-1.73 1.01-2.4l-14.43-11.85c-.63.71-1.59 1.11-2.6.97a2.977 2.977 0 01-2.57-3.32 2.95 2.95 0 011.95-2.41l-6.58-21c-.22.06-.47.08-.71.05a1.92 1.92 0 01-1.65-2.14c.13-1.04 1.1-1.79 2.14-1.65 1.04.13 1.79 1.09 1.65 2.14-.1.72-.58 1.3-1.22 1.53l6.58 21a2.954 2.954 0 013.05.96l5.43-4.19c-.28-.42-.44-.94-.37-1.49a2.132 2.132 0 012.38-1.83 2.13 2.13 0 011.84 2.39c-.16 1.16-1.22 1.99-2.38 1.83-.55-.08-1.01-.34-1.34-.73l-5.44 4.19c.42.59.64 1.33.53 2.1a3.04 3.04 0 01-.58 1.42l14.43 11.85a4.927 4.927 0 014.36-1.67c1.79.23 3.22 1.4 3.88 2.94l36.78-13.76c-.4-1.13-.55-2.35-.39-3.62.11-.82.34-1.58.67-2.3l-23.98-11.81a3.049 3.049 0 01-3.04 1.49 3.07 3.07 0 01-2.65-3.43 3.07 3.07 0 013.43-2.65c1.68.22 2.87 1.76 2.65 3.43-.04.27-.11.52-.2.76l23.99 11.82c.6-1.13 1.47-2.09 2.51-2.8l-44.94-66.45a6.935 6.935 0 01-4.68 1.07 6.31 6.31 0 01-1.51-.38l-2.02 4.87c.85.45 1.38 1.38 1.25 2.39a2.364 2.364 0 01-2.66 2.05 2.39 2.39 0 01-2.05-2.66 2.38 2.38 0 012.66-2.04c.14.02.27.05.39.09l2.02-4.86a6.977 6.977 0 01-3.73-4.03l-18.76 5.96c.14.54.19 1.11.11 1.7-.32 2.43-2.54 4.16-4.97 3.84a4.453 4.453 0 01-3.84-4.98 4.453 4.453 0 014.98-3.84 4.44 4.44 0 013.59 2.86l18.75-5.95c-.25-.89-.33-1.83-.21-2.8.33-2.5 1.94-4.5 4.08-5.46l-4.34-10.49c-.63.23-1.33.32-2.04.22-2.41-.32-4.12-2.52-3.8-4.94a4.4 4.4 0 014.94-3.8c2.42.31 4.12 2.52 3.8 4.93a4.393 4.393 0 01-2.49 3.42l4.35 10.49c1.02-.38 2.14-.52 3.29-.38 1.77.23 3.29 1.11 4.36 2.36l34.09-28.35c-.98-1.15-1.68-2.53-1.97-4.05l-19.42 3.29c.08.57.09 1.16.01 1.76a6.705 6.705 0 01-7.52 5.79c-3.67-.48-6.27-3.84-5.79-7.52a6.695 6.695 0 017.51-5.79c2.93.38 5.16 2.59 5.71 5.32l19.43-3.29c-.12-.78-.14-1.59-.03-2.42a8.882 8.882 0 013.79-6.19l-15.25-23.43c-.94.56-2.06.82-3.23.67-2.78-.37-4.74-2.9-4.38-5.68a5.074 5.074 0 015.68-4.37c2.77.36 4.74 2.9 4.38 5.68a5.035 5.035 0 01-2.09 3.47l15.25 23.42a8.983 8.983 0 015.84-1.27c.25.04.5.08.74.14l1.14-4.63a3.323 3.323 0 01-2.29-3.59 3.31 3.31 0 013.72-2.86c1.81.24 3.09 1.9 2.86 3.72-.24 1.82-1.9 3.1-3.72 2.86a.59.59 0 01-.14-.02l-1.13 4.64c1.73.47 3.23 1.43 4.36 2.72l43.95-36.55a6.93 6.93 0 01-1.06-6.4l-12.02-4.47a5.3 5.3 0 01-5.54 3.19 5.256 5.256 0 01-3.36-1.85l-9.18 7.38c.41.55.62 1.25.52 1.99-.19 1.49-1.57 2.56-3.08 2.37-1.5-.2-2.57-1.57-2.37-3.07.2-1.5 1.57-2.57 3.08-2.38.69.1 1.29.44 1.72.93l9.17-7.37a5.219 5.219 0 01-1.05-3.9c.11-.82.4-1.57.82-2.22l-17.49-12.02c-.43.55-1.13.88-1.88.78a2.058 2.058 0 01-1.77-2.3 2.04 2.04 0 012.29-1.76c1.12.14 1.91 1.17 1.77 2.29-.03.3-.14.56-.29.8l17.49 12.02a5.319 5.319 0 014.97-2.16 5.29 5.29 0 014.56 5.92c-.04.33-.11.64-.21.95l12.01 4.47a6.91 6.91 0 012.29-2.96l-44.95-66.46a7.913 7.913 0 01-5.08 1.08c-1.23-.16-2.36-.6-3.33-1.25l-19.83 29.02c1.21.92 1.9 2.44 1.7 4.06a4.374 4.374 0 01-4.91 3.78c-2.4-.31-4.1-2.51-3.78-4.91.31-2.4 2.51-4.09 4.91-3.79.63.08 1.21.29 1.73.62l19.83-29.03c-2.21-1.65-3.5-4.4-3.12-7.34.14-1.07.49-2.07 1-2.95l-9.41-5.91a5.788 5.788 0 01-5.51 2.48 5.809 5.809 0 01-3.4-1.71L271 17.7c.34.4.52.94.45 1.5a1.952 1.952 0 01-2.19 1.69 1.965 1.965 0 01-1.69-2.19 1.958 1.958 0 012.19-1.69c.43.06.8.26 1.09.53l6.92-6.48a5.726 5.726 0 01-1.44-4.6c.19-1.46.91-2.71 1.94-3.61l-9.92-11.86c-.41.31-.94.46-1.48.39a2.05 2.05 0 01-1.76-2.28 2.032 2.032 0 012.28-1.75c1.12.14 1.9 1.16 1.75 2.28-.06.49-.3.9-.63 1.21l9.92 11.87a5.777 5.777 0 014.36-1.23c3.16.42 5.4 3.3 4.99 6.47-.1.78-.35 1.5-.72 2.14l9.41 5.91c1.53-2.31 4.22-3.73 7.13-3.52l5.17-39.9a7.235 7.235 0 01-4.08-2.35l-3.47 2.95c.34.43.5.99.43 1.56-.16 1.17-1.22 1.99-2.38 1.83a2.124 2.124 0 01-1.84-2.37c.15-1.17 1.22-1.98 2.38-1.85.51.08.95.33 1.27.67l3.48-2.96a7.309 7.309 0 01-1.63-5.25l-41-5.39a4.876 4.876 0 01-5.42 3.98c-.83-.11-1.6-.43-2.23-.89l-6.37 8.36c.54.44.83 1.14.74 1.89a2.135 2.135 0 01-2.38 1.84 2.147 2.147 0 01-1.84-2.38 2.132 2.132 0 012.38-1.84c.34.04.65.17.92.35l6.37-8.36a4.866 4.866 0 01-1.8-4.43 4.867 4.867 0 015.46-4.2c2.6.33 4.44 2.66 4.22 5.25l40.98 5.39a7.295 7.295 0 012.22-4.26l-19.23-22.81c-.96.74-2.2 1.11-3.5.94a4.743 4.743 0 01-4.09-5.32c.07-.52.22-1.02.44-1.47l-21.54-11.12a1.96 1.96 0 01-1.96.96 1.985 1.985 0 01-1.71-2.23 1.974 1.974 0 012.22-1.71c1.09.14 1.86 1.14 1.72 2.23-.03.2-.08.38-.17.55l21.55 11.12a4.728 4.728 0 014.77-2.43c2.6.33 4.43 2.72 4.09 5.31a4.681 4.681 0 01-1.48 2.88l19.22 22.8a7.186 7.186 0 015.58-1.61c1.69.21 3.17 1 4.27 2.14L345.6-67.3c-1-1.17-1.62-2.65-1.69-4.27l-13.64.17c-.01.11-.01.23-.03.34a3.989 3.989 0 01-4.47 3.44 3.99 3.99 0 01-3.45-4.47 3.995 3.995 0 014.47-3.45c1.92.25 3.35 1.82 3.47 3.69l13.64-.17c0-.25.02-.51.05-.77.18-1.4.77-2.66 1.63-3.66l-26.06-23.77a6.05 6.05 0 01-5.11 1.78 6.165 6.165 0 01-3.16-1.4l-6.56 7.17c.86.87 1.32 2.11 1.15 3.41-.3 2.27-2.37 3.87-4.63 3.58a4.135 4.135 0 01-3.57-4.64c.29-2.26 2.37-3.85 4.63-3.57.8.1 1.51.43 2.09.91l6.57-7.17a6.052 6.052 0 01-1.77-5.1c.06-.43.16-.83.3-1.22L281-117.52a3.73 3.73 0 01-3.84 2.12 3.683 3.683 0 01-2.45-1.41l-9.18 7.51c.32.44.48 1 .41 1.58a2.192 2.192 0 01-2.45 1.89 2.19 2.19 0 01-1.88-2.45c.16-1.2 1.25-2.04 2.45-1.88.53.07.99.34 1.33.7l9.2-7.53c-.5-.72-.74-1.63-.62-2.55a3.706 3.706 0 014.15-3.2c2.03.26 3.46 2.12 3.19 4.15-.03.22-.07.45-.15.66l28.51 11.1a6.116 6.116 0 014.02-3.47l-4.86-21.52a5.149 5.149 0 01-6.03-5.73c.07-.53.22-1.04.44-1.5l-21.18-10.94a3.317 3.317 0 01-3.26 1.58 3.321 3.321 0 01-2.87-3.72c.23-1.82 1.9-3.11 3.72-2.87 1.82.24 3.1 1.9 2.87 3.71-.04.32-.13.62-.25.9l21.18 10.93a5.17 5.17 0 015.14-2.56c1.63.21 2.98 1.17 3.77 2.48l17.82-9.59a3.302 3.302 0 011.28-4.21l-18.84-35.84c-.85.41-1.85.59-2.87.46a5.151 5.151 0 01-4.44-5.78 5.149 5.149 0 015.77-4.45c2.82.37 4.81 2.95 4.45 5.77a5.173 5.173 0 01-2.52 3.79l18.85 35.84c.54-.23 1.15-.34 1.77-.25 1.83.24 3.11 1.91 2.88 3.73a3.345 3.345 0 01-3.73 2.88 3.307 3.307 0 01-2.4-1.54l-17.82 9.58c.42.87.61 1.87.47 2.91a5.139 5.139 0 01-3.76 4.31l4.87 21.53c.61-.12 1.25-.15 1.9-.06 2.35.31 4.21 1.92 4.95 4l19.17-5.98c-.14-.52-.18-1.09-.11-1.66.31-2.4 2.51-4.09 4.91-3.77 2.4.3 4.1 2.5 3.78 4.9a4.39 4.39 0 01-4.91 3.79c-1.67-.22-3-1.35-3.55-2.83l-19.17 5.98a6.098 6.098 0 01-1.23 5.53l26.06 23.77a7.03 7.03 0 015.94-2.08c.1.01.2.04.29.06l.66-3.44a2.124 2.124 0 01-1.61-2.33 2.114 2.114 0 012.38-1.83c1.17.14 1.99 1.21 1.84 2.38a2.12 2.12 0 01-2.38 1.83c-.01 0-.01-.01-.02 0l-.65 3.42c1.54.32 2.86 1.12 3.85 2.23l15.75-13.06a3.88 3.88 0 01-.72-2.81 3.872 3.872 0 014.35-3.35c2.13.27 3.63 2.22 3.35 4.35a3.872 3.872 0 01-4.35 3.35 3.87 3.87 0 01-2.34-1.2l-15.76 13.05a7.008 7.008 0 011.43 5.21 7.079 7.079 0 01-1.95 4.01l10.12 10.55c.73-.62 1.72-.94 2.75-.81 1.94.26 3.32 2.03 3.07 3.98-.26 1.94-2.04 3.32-3.98 3.07a3.545 3.545 0 01-3.06-3.99c.1-.76.43-1.42.91-1.95l-10.12-10.55a6.942 6.942 0 01-5.59 1.75 7.008 7.008 0 01-4.13-2.06l-30.25 27.63c1.31 1.52 2 3.55 1.72 5.68a7.176 7.176 0 01-.98 2.82l10.62 6.56a4.983 4.983 0 014.79-2.16c2.75.35 4.68 2.87 4.32 5.61a5.007 5.007 0 01-5.62 4.33 5.007 5.007 0 01-4.33-5.62c.08-.66.29-1.26.6-1.81l-10.63-6.56c-1.5 2.17-4.13 3.46-6.92 3.09-.01-.01-.02-.01-.03 0l-5.16 39.86c.01 0 .01-.01.02 0 2.9.38 5.23 2.29 6.27 4.81l36.77-13.76c-.22-.67-.3-1.4-.2-2.14a4.91 4.91 0 015.5-4.23c2.69.35 4.58 2.81 4.24 5.5-.12.91-.48 1.73-1.01 2.4l14.43 11.85c.63-.71 1.59-1.11 2.6-.97 1.63.2 2.77 1.7 2.57 3.32a2.96 2.96 0 01-1.96 2.41l6.58 20.99c.22-.06.47-.08.71-.05a1.92 1.92 0 011.65 2.14 1.913 1.913 0 01-2.14 1.65 1.907 1.907 0 01-1.65-2.14c.1-.72.58-1.3 1.22-1.53l-6.58-21c-.37.1-.76.13-1.17.08-.77-.1-1.43-.49-1.89-1.05l-5.43 4.19c.28.42.44.94.36 1.49a2.126 2.126 0 01-2.38 1.83 2.13 2.13 0 01-1.84-2.39c.16-1.16 1.22-1.99 2.38-1.84.55.08 1.01.35 1.34.73l5.44-4.18c-.42-.6-.63-1.33-.53-2.1.07-.54.28-1.01.58-1.42L355.51 5.23a4.895 4.895 0 01-4.36 1.66c-1.79-.22-3.22-1.4-3.88-2.94L310.5 17.72c.4 1.12.55 2.34.39 3.62-.11.82-.34 1.58-.67 2.3l23.98 11.81c.61-1.03 1.78-1.66 3.04-1.49a3.07 3.07 0 012.65 3.43 3.055 3.055 0 01-3.43 2.64c-1.68-.22-2.87-1.76-2.65-3.43.04-.27.11-.52.2-.76l-23.99-11.82a7.951 7.951 0 01-2.51 2.8l44.94 66.45a6.935 6.935 0 014.68-1.07c.53.07 1.03.2 1.51.38l2.02-4.87a2.361 2.361 0 01-1.25-2.39c.16-1.3 1.35-2.21 2.66-2.05a2.39 2.39 0 012.05 2.66 2.38 2.38 0 01-2.66 2.04 2.23 2.23 0 01-.39-.09l-2.02 4.86c1.76.78 3.09 2.25 3.73 4.03l18.76-5.95c-.14-.54-.19-1.11-.11-1.7.32-2.43 2.54-4.16 4.98-3.84a4.43 4.43 0 013.82 4.97z" opacity=".23"/>
    <linearGradient id="J" x1="120.115" x2="120.115" y1="-1" y2="279.002" gradientTransform="rotate(180 212.6 141.73)" gradientUnits="userSpaceOnUse">
      <stop offset="0" stop-color="#009eff"/>
      <stop offset=".5" stop-color="#ff1e64"/>
      <stop offset="1" stop-color="#009eff"/>
    </linearGradient>
    <path fill="url(#J)" d="M242.1 103.65c.23 1.8 1.89 3.07 3.68 2.84a3.282 3.282 0 002.66-2.12l13.87 4.4c-.18.65-.24 1.36-.15 2.07a5.138 5.138 0 003.02 4.04l-3.21 7.75c-.47-.17-.98-.23-1.51-.16a3.255 3.255 0 00-2.81 3.65 3.262 3.262 0 003.65 2.81 3.25 3.25 0 002.81-3.65 3.267 3.267 0 00-1.84-2.53l3.21-7.76c.75.28 1.59.39 2.43.28a5.14 5.14 0 003.23-1.74l32.51 27.04a6.576 6.576 0 00-1.38 4.95c.06.49.18.96.35 1.41l-17.35 6.79c-.6-1.32-2.01-2.17-3.52-1.97-.82.11-1.53.49-2.04 1.05l-5.06-4.48c.38-.46.58-1.07.5-1.71a2.25 2.25 0 00-2.52-1.94 2.252 2.252 0 00-1.94 2.52 2.24 2.24 0 002.51 1.93c.53-.07.99-.32 1.34-.68l5.06 4.49c-.59.7-.91 1.63-.77 2.61a3.393 3.393 0 003.18 2.95l-.09 3.33c-.06 0-.11-.01-.18 0-.91.12-1.54.95-1.42 1.85.12.91.95 1.55 1.85 1.42.9-.11 1.54-.94 1.42-1.84a1.64 1.64 0 00-1.51-1.43l.1-3.32c.15 0 .3-.01.44-.02a3.387 3.387 0 002.78-4.44l17.35-6.8a6.619 6.619 0 004.61 3.86l.32.07c.64.11 1.32.13 2 .04 1.58-.2 2.94-.96 3.95-2.04l25.23 20.98a5.115 5.115 0 00-1 3.77c.04.34.12.65.22.97l-8.89 3.3a3.898 3.898 0 00-4.1-2.36c-1.02.13-1.88.64-2.49 1.37l-6.79-5.46c.3-.41.46-.93.38-1.47a2.024 2.024 0 00-2.28-1.75c-1.11.15-1.9 1.16-1.75 2.27.15 1.11 1.16 1.9 2.28 1.76.51-.07.95-.32 1.27-.68l6.79 5.45a3.896 3.896 0 00-.17 4.53l-12.94 8.89c-.32-.41-.83-.65-1.39-.58-.83.11-1.41.86-1.31 1.7.11.83.87 1.41 1.69 1.3.83-.11 1.41-.87 1.31-1.69-.02-.22-.1-.42-.21-.59l12.93-8.89c.81 1.13 2.2 1.78 3.67 1.6a3.902 3.902 0 003.37-4.38 3.24 3.24 0 00-.16-.7l8.89-3.31c.36.89.95 1.64 1.69 2.19l-33.25 49.16c-1.09-.66-2.4-.97-3.76-.8-.91.12-1.75.44-2.46.92l-14.67-21.47a3.24 3.24 0 001.25-3 3.241 3.241 0 00-3.63-2.8 3.249 3.249 0 00-2.8 3.63 3.246 3.246 0 003.64 2.8c.47-.06.89-.22 1.28-.46l14.66 21.48a5.827 5.827 0 00-1.57 7.61l-6.96 4.37a4.286 4.286 0 00-4.07-1.83c-1 .13-1.86.6-2.51 1.26l-5.12-4.79c.25-.3.38-.7.33-1.11a1.45 1.45 0 00-1.62-1.25c-.79.11-1.35.83-1.25 1.62.1.79.83 1.35 1.62 1.25.32-.05.59-.19.81-.39l5.12 4.79c-.8.89-1.23 2.12-1.06 3.4.14 1.08.68 2 1.44 2.67l-7.34 8.77c-.31-.23-.69-.34-1.1-.29-.82.11-1.4.86-1.3 1.69.11.82.86 1.4 1.69 1.29a1.5 1.5 0 00.84-2.58l7.34-8.78a4.21 4.21 0 003.22.91c2.34-.31 4-2.45 3.69-4.79-.08-.58-.26-1.11-.53-1.58l6.96-4.37a5.807 5.807 0 005.27 2.6l3.83 29.51c-1.21.24-2.26.86-3.02 1.73l-2.57-2.18c.25-.32.37-.73.31-1.16a1.58 1.58 0 00-1.76-1.36c-.86.11-1.47.89-1.36 1.76.11.86.9 1.47 1.76 1.37.38-.05.7-.24.94-.49l2.57 2.19a5.366 5.366 0 00-1.2 3.88l-30.33 3.98a3.599 3.599 0 00-5.66-2.28l-4.71-6.18c.4-.32.62-.84.55-1.4-.11-.86-.9-1.47-1.76-1.36-.86.12-1.47.9-1.36 1.76.12.86.9 1.48 1.76 1.36.25-.03.48-.13.68-.26l4.72 6.19c-.95.76-1.49 1.98-1.33 3.27a3.598 3.598 0 004.04 3.11 3.596 3.596 0 003.12-3.88l30.32-3.99c.18 1.25.79 2.35 1.65 3.15L291 292.91c-.71-.55-1.63-.82-2.59-.7a3.518 3.518 0 00-3.03 3.93c.05.39.17.75.33 1.09l-15.94 8.23c-.29-.49-.85-.79-1.45-.71-.8.11-1.37.84-1.27 1.65.1.8.84 1.37 1.64 1.27.81-.11 1.37-.84 1.27-1.65a1.39 1.39 0 00-.12-.41l15.94-8.23a3.51 3.51 0 003.53 1.8 3.506 3.506 0 003.03-3.93c-.1-.85-.51-1.58-1.09-2.13l14.22-16.87c1.11.92 2.58 1.4 4.13 1.19 1.25-.16 2.34-.74 3.16-1.58l22.37 20.45c-.74.86-1.2 1.96-1.25 3.16l-10.09-.13c-.01-.08-.01-.17-.02-.25a2.952 2.952 0 00-3.31-2.55 2.948 2.948 0 00-2.55 3.3 2.952 2.952 0 003.31 2.55 2.952 2.952 0 002.57-2.73l10.09.12c0 .19.01.38.04.57.13 1.04.57 1.97 1.21 2.71l-19.27 17.59a4.44 4.44 0 00-3.78-1.31c-.89.12-1.69.49-2.33 1.03l-4.85-5.3c.63-.65.98-1.56.85-2.52a3.066 3.066 0 00-3.42-2.65 3.055 3.055 0 00-2.64 3.43 3.07 3.07 0 003.43 2.64c.59-.07 1.11-.32 1.54-.67l4.86 5.3a4.48 4.48 0 00-1.31 3.77c.05.32.12.62.22.9l-21.08 8.2a2.75 2.75 0 00-2.84-1.57c-.75.1-1.38.49-1.81 1.04l-6.79-5.56c.23-.33.36-.74.31-1.17-.12-.88-.93-1.51-1.81-1.39-.88.12-1.51.93-1.39 1.81a1.605 1.605 0 002.79.87l6.81 5.57c-.37.53-.55 1.2-.46 1.89.19 1.5 1.57 2.56 3.07 2.37 1.5-.2 2.56-1.57 2.36-3.07-.02-.17-.05-.33-.11-.49l21.09-8.21a4.497 4.497 0 002.97 2.56l-3.6 15.92a3.816 3.816 0 00-4.14 5.35l-15.67 8.09a2.457 2.457 0 00-2.41-1.17c-1.35.17-2.3 1.41-2.12 2.75.17 1.35 1.41 2.3 2.75 2.12a2.462 2.462 0 002.12-2.75c-.03-.23-.09-.46-.18-.67l15.67-8.09c.74 1.3 2.22 2.09 3.8 1.89 1.21-.16 2.2-.87 2.79-1.84l13.18 7.09c-.19.4-.27.86-.21 1.33.1.77.55 1.41 1.15 1.78l-13.94 26.51c-.63-.3-1.37-.43-2.12-.34a3.816 3.816 0 00-3.29 4.27 3.809 3.809 0 004.27 3.29 3.809 3.809 0 003.29-4.27 3.79 3.79 0 00-1.87-2.8l13.94-26.51c.4.17.85.25 1.31.19a2.466 2.466 0 00-.63-4.89c-.76.1-1.39.53-1.77 1.14l-13.18-7.09a3.81 3.81 0 00-2.43-5.34l3.6-15.92c.45.09.92.11 1.4.04a4.51 4.51 0 003.66-2.96l14.18 4.43c-.1.39-.13.8-.08 1.22a3.229 3.229 0 003.63 2.79 3.23 3.23 0 002.8-3.63 3.236 3.236 0 00-6.25-.7l-14.18-4.42a4.497 4.497 0 00-.91-4.09l19.27-17.58c1.1 1.13 2.7 1.75 4.39 1.54.07-.01.14-.03.22-.04l.49 2.54c-.77.19-1.3.92-1.19 1.72.11.86.9 1.47 1.76 1.35a1.57 1.57 0 001.36-1.76c-.11-.86-.9-1.47-1.76-1.36-.01 0-.01.01-.02 0l-.48-2.53c1.14-.24 2.12-.83 2.85-1.65l11.65 9.66a2.89 2.89 0 00-.53 2.08c.2 1.57 1.64 2.68 3.22 2.48a2.88 2.88 0 002.48-3.22 2.874 2.874 0 00-4.95-1.59l-11.66-9.65a5.213 5.213 0 001.06-3.86 5.198 5.198 0 00-1.45-2.96l7.48-7.8a2.628 2.628 0 004.3-2.35 2.634 2.634 0 00-2.95-2.27 2.634 2.634 0 00-1.6 4.39l-7.48 7.81a5.15 5.15 0 00-4.14-1.29c-1.21.16-2.27.72-3.05 1.52l-22.38-20.44a5.318 5.318 0 001.27-4.2c-.1-.77-.35-1.47-.73-2.08l7.86-4.85c.76 1.12 2.11 1.79 3.54 1.59a3.706 3.706 0 003.2-4.15 3.71 3.71 0 00-4.16-3.21 3.698 3.698 0 00-3.2 4.15c.06.48.22.94.44 1.34l-7.86 4.85a5.369 5.369 0 00-5.12-2.29c-.01.01-.01.01-.02 0l-3.82-29.48c.01 0 .01.01.01 0a5.818 5.818 0 004.64-3.56l27.2 10.18c-.17.49-.22 1.03-.15 1.59a3.635 3.635 0 004.07 3.13 3.628 3.628 0 003.13-4.07c-.09-.67-.36-1.28-.74-1.77l10.68-8.76c.46.52 1.17.82 1.92.71a2.2 2.2 0 001.9-2.45c-.11-.85-.69-1.51-1.45-1.78l4.87-15.53c.17.04.35.06.52.04.77-.1 1.32-.81 1.22-1.58-.1-.77-.81-1.32-1.58-1.22-.77.1-1.32.81-1.22 1.58.07.53.43.96.9 1.13l-4.87 15.53c-.28-.07-.56-.1-.86-.06-.57.07-1.06.36-1.4.77l-4.02-3.1c.21-.31.32-.69.27-1.1-.11-.86-.9-1.46-1.76-1.36-.87.11-1.47.9-1.36 1.77.12.86.9 1.47 1.76 1.36.4-.06.75-.25.99-.54l4.02 3.1c-.31.44-.47.98-.39 1.55.05.4.21.75.43 1.05l-10.68 8.77c-.78-.9-1.97-1.4-3.22-1.23a3.616 3.616 0 00-2.87 2.18l-27.2-10.18c.29-.83.41-1.73.29-2.68-.08-.6-.25-1.17-.5-1.7l17.74-8.73c.45.76 1.32 1.23 2.25 1.1a2.28 2.28 0 001.96-2.54 2.272 2.272 0 00-2.54-1.96c-1.24.16-2.12 1.3-1.96 2.54.03.2.08.39.15.56l-17.75 8.74a5.882 5.882 0 00-1.86-2.07l33.24-49.15c.99.64 2.2.95 3.46.79.39-.05.76-.15 1.12-.28l1.5 3.6c-.63.33-1.02 1.02-.92 1.77.12.96 1 1.64 1.96 1.52.96-.13 1.63-1.01 1.51-1.97-.13-.96-1-1.64-1.97-1.51-.1.01-.2.04-.29.07l-1.49-3.6c1.3-.57 2.29-1.66 2.76-2.98l13.87 4.41a3.293 3.293 0 003.6 4.1c1.8-.24 3.07-1.88 2.84-3.68a3.293 3.293 0 00-3.68-2.84 3.282 3.282 0 00-2.66 2.12l-13.87-4.4c.18-.66.24-1.35.15-2.07a5.138 5.138 0 00-3.02-4.04l3.21-7.76c.47.17.98.23 1.51.16a3.255 3.255 0 002.81-3.65 3.257 3.257 0 00-3.65-2.81 3.25 3.25 0 00-2.81 3.65c.15 1.14.87 2.07 1.84 2.53l-3.21 7.76c-.75-.28-1.59-.39-2.43-.28a5.14 5.14 0 00-3.23 1.74l-25.21-20.97c.72-.85 1.24-1.87 1.46-3l14.36 2.44c-.06.42-.06.86-.01 1.3a4.971 4.971 0 005.56 4.29 4.951 4.951 0 004.28-5.56 4.966 4.966 0 00-5.56-4.29 4.944 4.944 0 00-4.22 3.94l-14.37-2.43c.09-.58.1-1.18.02-1.79a6.607 6.607 0 00-2.8-4.58l11.28-17.33c.69.41 1.53.61 2.39.5a3.76 3.76 0 003.24-4.21 3.748 3.748 0 00-4.2-3.23c-2.05.26-3.5 2.14-3.24 4.2.14 1.08.72 1.98 1.54 2.57l-11.28 17.32a6.649 6.649 0 00-4.32-.94c-.19.03-.37.06-.55.1l-.84-3.43a2.453 2.453 0 001.69-2.66 2.457 2.457 0 00-2.75-2.12c-1.34.18-2.29 1.4-2.12 2.75a2.468 2.468 0 002.75 2.12c.03 0 .07-.01.11-.02l.84 3.43a6.57 6.57 0 00-3.23 2.01l-32.51-27.04a5.115 5.115 0 001-3.77c-.04-.34-.12-.66-.22-.97l8.89-3.3a3.905 3.905 0 004.09 2.36c1.02-.13 1.88-.64 2.49-1.37l6.79 5.46c-.3.41-.46.93-.38 1.47.14 1.1 1.16 1.9 2.28 1.75a2.02 2.02 0 001.75-2.27 2.044 2.044 0 00-2.28-1.76c-.51.07-.95.32-1.27.68l-6.79-5.45a3.896 3.896 0 00.17-4.53l12.94-8.89c.32.41.83.65 1.39.58a1.52 1.52 0 001.31-1.7c-.11-.83-.87-1.41-1.69-1.3-.83.1-1.41.87-1.31 1.69.03.22.1.42.21.59l-12.93 8.89a3.894 3.894 0 00-3.67-1.59 3.902 3.902 0 00-3.21 5.08l-8.89 3.31c-.36-.88-.95-1.63-1.69-2.19l33.25-49.16c1.09.66 2.4.97 3.76.8.91-.12 1.75-.45 2.46-.92l14.67 21.47a3.24 3.24 0 00-1.25 3 3.241 3.241 0 003.63 2.8 3.249 3.249 0 002.8-3.63 3.246 3.246 0 00-3.64-2.8c-.47.06-.89.22-1.28.46L310.06 56.6a5.827 5.827 0 001.57-7.61l6.96-4.37a4.286 4.286 0 004.07 1.83c1-.13 1.86-.6 2.51-1.26l5.12 4.79c-.25.3-.38.7-.33 1.11.1.79.82 1.35 1.62 1.25.79-.11 1.35-.83 1.25-1.62a1.45 1.45 0 00-1.62-1.25c-.32.04-.59.19-.81.39l-5.12-4.79a4.25 4.25 0 001.06-3.41c-.14-1.08-.68-2-1.44-2.67l7.34-8.77c.31.23.69.34 1.1.29.82-.11 1.4-.86 1.3-1.69-.11-.82-.86-1.4-1.69-1.29-.83.1-1.4.86-1.3 1.69.05.36.22.67.46.9l-7.34 8.78c-.88-.7-2.02-1.07-3.22-.91-2.34.31-4 2.44-3.69 4.79.08.58.26 1.11.53 1.58l-6.96 4.37a5.836 5.836 0 00-5.27-2.61l-3.83-29.51c1.21-.24 2.26-.86 3.02-1.74l2.57 2.18c-.25.32-.37.73-.31 1.16.12.86.9 1.47 1.76 1.35a1.57 1.57 0 001.36-1.76 1.59 1.59 0 00-1.76-1.37c-.38.06-.7.24-.94.49l-2.57-2.19a5.366 5.366 0 001.2-3.88L337 6.87a3.599 3.599 0 005.66 2.28l4.71 6.18c-.4.32-.62.84-.55 1.4.11.86.9 1.47 1.76 1.36.86-.12 1.47-.9 1.36-1.76a1.58 1.58 0 00-1.76-1.36c-.25.03-.48.13-.68.26l-4.71-6.19c.95-.76 1.49-1.98 1.33-3.27a3.612 3.612 0 00-4.04-3.11 3.596 3.596 0 00-3.12 3.88l-30.32 3.99A5.39 5.39 0 00305 7.38l14.22-16.87c.71.55 1.63.82 2.59.7a3.518 3.518 0 003.03-3.93c-.05-.39-.17-.75-.33-1.08l15.94-8.23c.29.49.85.79 1.45.71.8-.11 1.37-.84 1.27-1.65-.1-.8-.84-1.37-1.65-1.27-.81.11-1.37.84-1.27 1.65.02.15.06.28.12.41l-15.94 8.23a3.51 3.51 0 00-3.53-1.8 3.506 3.506 0 00-3.03 3.93c.11.85.51 1.59 1.09 2.13L304.75 7.18a5.312 5.312 0 00-4.12-1.19c-1.25.16-2.34.74-3.16 1.58L275.1-12.88c.74-.86 1.2-1.96 1.25-3.16l10.09.13c.01.08.01.17.02.25a2.96 2.96 0 003.31 2.55 2.948 2.948 0 002.55-3.3 2.952 2.952 0 00-3.31-2.55c-1.42.18-2.47 1.35-2.57 2.73l-10.09-.13c0-.19-.01-.38-.04-.57a5.102 5.102 0 00-1.21-2.71l19.27-17.59c.95.98 2.33 1.5 3.78 1.31a4.48 4.48 0 002.33-1.04l4.85 5.3c-.63.65-.98 1.56-.85 2.52a3.066 3.066 0 003.42 2.65 3.055 3.055 0 002.64-3.43 3.07 3.07 0 00-3.43-2.64c-.59.07-1.11.32-1.54.67l-4.86-5.3a4.49 4.49 0 001.31-3.77c-.05-.32-.12-.62-.22-.9l21.08-8.2a2.764 2.764 0 002.84 1.57c.75-.1 1.38-.49 1.81-1.04l6.79 5.55c-.23.33-.36.74-.31 1.17.12.88.93 1.51 1.81 1.4.88-.12 1.51-.93 1.39-1.81-.12-.88-.92-1.51-1.81-1.39-.4.05-.73.25-.98.52l-6.81-5.57c.37-.53.55-1.2.46-1.89a2.746 2.746 0 00-3.07-2.37c-1.5.2-2.56 1.57-2.36 3.07.02.17.05.33.11.49l-21.09 8.21a4.497 4.497 0 00-2.97-2.56l3.6-15.92a3.816 3.816 0 004.14-5.35l15.67-8.09c.48.81 1.42 1.29 2.41 1.17 1.35-.17 2.3-1.41 2.12-2.75a2.448 2.448 0 00-2.75-2.12 2.462 2.462 0 00-2.12 2.75c.03.24.09.46.18.67l-15.67 8.09c-.74-1.3-2.22-2.1-3.8-1.89-1.21.16-2.2.87-2.79 1.83l-13.18-7.09c.18-.4.27-.86.21-1.33-.1-.77-.55-1.41-1.15-1.78l13.94-26.51c.63.3 1.37.43 2.12.34a3.816 3.816 0 003.29-4.27 3.809 3.809 0 00-4.27-3.29 3.809 3.809 0 00-3.29 4.27 3.79 3.79 0 001.87 2.8L285.3-76.67c-.4-.17-.85-.25-1.31-.19a2.466 2.466 0 00.63 4.89c.76-.1 1.39-.54 1.77-1.14l13.18 7.09a3.81 3.81 0 00-.35 2.15c.2 1.57 1.34 2.8 2.78 3.18l-3.6 15.92c-.45-.09-.92-.11-1.4-.04a4.51 4.51 0 00-3.66 2.96l-14.18-4.43c.1-.39.13-.8.08-1.22a3.229 3.229 0 00-3.63-2.79 3.23 3.23 0 00-2.8 3.63 3.236 3.236 0 006.25.7l14.18 4.42a4.497 4.497 0 00.91 4.09l-19.27 17.58a5.215 5.215 0 00-4.39-1.54c-.07.01-.14.03-.22.05l-.49-2.55c.77-.19 1.3-.92 1.19-1.72a1.56 1.56 0 00-1.76-1.35c-.86.11-1.47.9-1.36 1.76.11.86.9 1.47 1.76 1.36h.02l.48 2.53c-1.14.24-2.12.83-2.85 1.65l-11.65-9.66c.42-.58.63-1.31.53-2.08a2.874 2.874 0 10-.75 2.33l11.66 9.65a5.213 5.213 0 00-1.06 3.86c.16 1.16.68 2.18 1.45 2.96l-7.48 7.8a2.628 2.628 0 00-4.3 2.35 2.634 2.634 0 002.95 2.27 2.628 2.628 0 002.27-2.95c-.07-.56-.32-1.05-.67-1.44l7.48-7.81a5.15 5.15 0 004.14 1.29c1.21-.16 2.27-.72 3.05-1.52l22.38 20.44a5.318 5.318 0 00-1.27 4.2c.1.77.35 1.47.72 2.08l-7.86 4.85c-.76-1.12-2.11-1.79-3.54-1.59a3.706 3.706 0 00-3.2 4.15 3.71 3.71 0 004.16 3.21 3.698 3.698 0 003.2-4.15 3.78 3.78 0 00-.44-1.34l7.86-4.85a5.369 5.369 0 005.12 2.29h.02l3.82 29.48c-.01 0-.01-.01-.01 0a5.818 5.818 0 00-4.64 3.56L274 39.51c.17-.49.22-1.03.15-1.59a3.635 3.635 0 00-4.07-3.13 3.628 3.628 0 00-3.13 4.07c.09.67.36 1.28.74 1.77l-10.68 8.77c-.46-.52-1.17-.82-1.92-.72-1.2.15-2.05 1.26-1.9 2.46.11.85.69 1.51 1.45 1.78l-4.87 15.53c-.17-.04-.35-.06-.52-.04-.77.1-1.32.81-1.22 1.58.1.77.81 1.32 1.58 1.22.77-.1 1.32-.81 1.22-1.58-.07-.54-.43-.96-.9-1.13l4.87-15.53c.28.07.56.1.86.06.57-.08 1.06-.36 1.4-.77l4.02 3.1c-.21.31-.32.69-.27 1.1.11.86.9 1.46 1.76 1.36.87-.11 1.47-.9 1.36-1.77a1.58 1.58 0 00-1.76-1.36c-.4.06-.75.26-.99.54l-4.02-3.1c.31-.44.47-.98.39-1.55-.05-.4-.21-.75-.43-1.05l10.68-8.77c.77.89 1.97 1.4 3.22 1.23a3.625 3.625 0 002.87-2.17L301.08 50c-.29.83-.41 1.73-.29 2.68.08.6.25 1.17.5 1.7l-17.74 8.73a2.259 2.259 0 00-2.25-1.1 2.28 2.28 0 00-1.96 2.54 2.28 2.28 0 002.54 1.96c1.24-.16 2.12-1.3 1.96-2.54-.03-.2-.08-.39-.15-.56l17.75-8.74c.45.84 1.09 1.54 1.86 2.07l-33.24 49.15c-.99-.64-2.2-.95-3.46-.79-.39.05-.76.15-1.12.28l-1.5-3.6c.63-.33 1.02-1.02.92-1.77-.12-.96-1-1.64-1.96-1.52-.96.13-1.64 1.01-1.51 1.97.13.96 1 1.63 1.97 1.51.1-.01.2-.04.29-.07l1.49 3.6c-1.3.57-2.29 1.66-2.76 2.98l-13.87-4.4c.1-.4.14-.82.08-1.25-.24-1.8-1.88-3.08-3.68-2.84a3.264 3.264 0 00-2.85 3.66z"/>
  </g>
</svg>